<?xml version="1.0" encoding="utf-8" standalone="no"?>
<!DOCTYPE svg PUBLIC "-//W3C//DTD SVG 1.1//EN"
  "http://www.w3.org/Graphics/SVG/1.1/DTD/svg11.dtd">
<!-- Created with matplotlib (https://matplotlib.org/) -->
<svg height="345.6pt" version="1.1" viewBox="0 0 718.56 345.6" width="718.56pt" xmlns="http://www.w3.org/2000/svg" xmlns:xlink="http://www.w3.org/1999/xlink">
 <defs>
  <style type="text/css">
*{stroke-linecap:butt;stroke-linejoin:round;}
  </style>
 </defs>
 <g id="figure_1">
  <g id="patch_1">
   <path d="M 0 345.6 
L 718.56 345.6 
L 718.56 0 
L 0 0 
z
" style="fill:#ffffff;"/>
  </g>
  <g id="axes_1">
   <g id="patch_2">
    <path d="M 89.82 307.584 
L 646.704 307.584 
L 646.704 41.472 
L 89.82 41.472 
z
" style="fill:#ffffff;"/>
   </g>
   <g id="matplotlib.axis_1">
    <g id="xtick_1">
     <g id="line2d_1">
      <path clip-path="url(#p4ba36520ac)" d="M 101.810325 307.584 
L 101.810325 41.472 
" style="fill:none;stroke:#b0b0b0;stroke-linecap:square;stroke-width:0.8;"/>
     </g>
     <g id="line2d_2">
      <defs>
       <path d="M 0 0 
L 0 3.5 
" id="m18ba8156c6" style="stroke:#000000;stroke-width:0.8;"/>
      </defs>
      <g>
       <use style="stroke:#000000;stroke-width:0.8;" x="101.810325" xlink:href="#m18ba8156c6" y="307.584"/>
      </g>
     </g>
     <g id="text_1">
      <!-- 0 -->
      <defs>
       <path d="M 31.78125 66.40625 
Q 24.171875 66.40625 20.328125 58.90625 
Q 16.5 51.421875 16.5 36.375 
Q 16.5 21.390625 20.328125 13.890625 
Q 24.171875 6.390625 31.78125 6.390625 
Q 39.453125 6.390625 43.28125 13.890625 
Q 47.125 21.390625 47.125 36.375 
Q 47.125 51.421875 43.28125 58.90625 
Q 39.453125 66.40625 31.78125 66.40625 
z
M 31.78125 74.21875 
Q 44.046875 74.21875 50.515625 64.515625 
Q 56.984375 54.828125 56.984375 36.375 
Q 56.984375 17.96875 50.515625 8.265625 
Q 44.046875 -1.421875 31.78125 -1.421875 
Q 19.53125 -1.421875 13.0625 8.265625 
Q 6.59375 17.96875 6.59375 36.375 
Q 6.59375 54.828125 13.0625 64.515625 
Q 19.53125 74.21875 31.78125 74.21875 
z
" id="DejaVuSans-48"/>
      </defs>
      <g transform="translate(98.629075 322.182437)scale(0.1 -0.1)">
       <use xlink:href="#DejaVuSans-48"/>
      </g>
     </g>
    </g>
    <g id="xtick_2">
     <g id="line2d_3">
      <path clip-path="url(#p4ba36520ac)" d="M 168.423244 307.584 
L 168.423244 41.472 
" style="fill:none;stroke:#b0b0b0;stroke-linecap:square;stroke-width:0.8;"/>
     </g>
     <g id="line2d_4">
      <g>
       <use style="stroke:#000000;stroke-width:0.8;" x="168.423244" xlink:href="#m18ba8156c6" y="307.584"/>
      </g>
     </g>
     <g id="text_2">
      <!-- 5 -->
      <defs>
       <path d="M 10.796875 72.90625 
L 49.515625 72.90625 
L 49.515625 64.59375 
L 19.828125 64.59375 
L 19.828125 46.734375 
Q 21.96875 47.46875 24.109375 47.828125 
Q 26.265625 48.1875 28.421875 48.1875 
Q 40.625 48.1875 47.75 41.5 
Q 54.890625 34.8125 54.890625 23.390625 
Q 54.890625 11.625 47.5625 5.09375 
Q 40.234375 -1.421875 26.90625 -1.421875 
Q 22.3125 -1.421875 17.546875 -0.640625 
Q 12.796875 0.140625 7.71875 1.703125 
L 7.71875 11.625 
Q 12.109375 9.234375 16.796875 8.0625 
Q 21.484375 6.890625 26.703125 6.890625 
Q 35.15625 6.890625 40.078125 11.328125 
Q 45.015625 15.765625 45.015625 23.390625 
Q 45.015625 31 40.078125 35.4375 
Q 35.15625 39.890625 26.703125 39.890625 
Q 22.75 39.890625 18.8125 39.015625 
Q 14.890625 38.140625 10.796875 36.28125 
z
" id="DejaVuSans-53"/>
      </defs>
      <g transform="translate(165.241994 322.182437)scale(0.1 -0.1)">
       <use xlink:href="#DejaVuSans-53"/>
      </g>
     </g>
    </g>
    <g id="xtick_3">
     <g id="line2d_5">
      <path clip-path="url(#p4ba36520ac)" d="M 235.036163 307.584 
L 235.036163 41.472 
" style="fill:none;stroke:#b0b0b0;stroke-linecap:square;stroke-width:0.8;"/>
     </g>
     <g id="line2d_6">
      <g>
       <use style="stroke:#000000;stroke-width:0.8;" x="235.036163" xlink:href="#m18ba8156c6" y="307.584"/>
      </g>
     </g>
     <g id="text_3">
      <!-- 10 -->
      <defs>
       <path d="M 12.40625 8.296875 
L 28.515625 8.296875 
L 28.515625 63.921875 
L 10.984375 60.40625 
L 10.984375 69.390625 
L 28.421875 72.90625 
L 38.28125 72.90625 
L 38.28125 8.296875 
L 54.390625 8.296875 
L 54.390625 0 
L 12.40625 0 
z
" id="DejaVuSans-49"/>
      </defs>
      <g transform="translate(228.673663 322.182437)scale(0.1 -0.1)">
       <use xlink:href="#DejaVuSans-49"/>
       <use x="63.623047" xlink:href="#DejaVuSans-48"/>
      </g>
     </g>
    </g>
    <g id="xtick_4">
     <g id="line2d_7">
      <path clip-path="url(#p4ba36520ac)" d="M 301.649081 307.584 
L 301.649081 41.472 
" style="fill:none;stroke:#b0b0b0;stroke-linecap:square;stroke-width:0.8;"/>
     </g>
     <g id="line2d_8">
      <g>
       <use style="stroke:#000000;stroke-width:0.8;" x="301.649081" xlink:href="#m18ba8156c6" y="307.584"/>
      </g>
     </g>
     <g id="text_4">
      <!-- 15 -->
      <g transform="translate(295.286581 322.182437)scale(0.1 -0.1)">
       <use xlink:href="#DejaVuSans-49"/>
       <use x="63.623047" xlink:href="#DejaVuSans-53"/>
      </g>
     </g>
    </g>
    <g id="xtick_5">
     <g id="line2d_9">
      <path clip-path="url(#p4ba36520ac)" d="M 368.262 307.584 
L 368.262 41.472 
" style="fill:none;stroke:#b0b0b0;stroke-linecap:square;stroke-width:0.8;"/>
     </g>
     <g id="line2d_10">
      <g>
       <use style="stroke:#000000;stroke-width:0.8;" x="368.262" xlink:href="#m18ba8156c6" y="307.584"/>
      </g>
     </g>
     <g id="text_5">
      <!-- 20 -->
      <defs>
       <path d="M 19.1875 8.296875 
L 53.609375 8.296875 
L 53.609375 0 
L 7.328125 0 
L 7.328125 8.296875 
Q 12.9375 14.109375 22.625 23.890625 
Q 32.328125 33.6875 34.8125 36.53125 
Q 39.546875 41.84375 41.421875 45.53125 
Q 43.3125 49.21875 43.3125 52.78125 
Q 43.3125 58.59375 39.234375 62.25 
Q 35.15625 65.921875 28.609375 65.921875 
Q 23.96875 65.921875 18.8125 64.3125 
Q 13.671875 62.703125 7.8125 59.421875 
L 7.8125 69.390625 
Q 13.765625 71.78125 18.9375 73 
Q 24.125 74.21875 28.421875 74.21875 
Q 39.75 74.21875 46.484375 68.546875 
Q 53.21875 62.890625 53.21875 53.421875 
Q 53.21875 48.921875 51.53125 44.890625 
Q 49.859375 40.875 45.40625 35.40625 
Q 44.1875 33.984375 37.640625 27.21875 
Q 31.109375 20.453125 19.1875 8.296875 
z
" id="DejaVuSans-50"/>
      </defs>
      <g transform="translate(361.8995 322.182437)scale(0.1 -0.1)">
       <use xlink:href="#DejaVuSans-50"/>
       <use x="63.623047" xlink:href="#DejaVuSans-48"/>
      </g>
     </g>
    </g>
    <g id="xtick_6">
     <g id="line2d_11">
      <path clip-path="url(#p4ba36520ac)" d="M 434.874919 307.584 
L 434.874919 41.472 
" style="fill:none;stroke:#b0b0b0;stroke-linecap:square;stroke-width:0.8;"/>
     </g>
     <g id="line2d_12">
      <g>
       <use style="stroke:#000000;stroke-width:0.8;" x="434.874919" xlink:href="#m18ba8156c6" y="307.584"/>
      </g>
     </g>
     <g id="text_6">
      <!-- 25 -->
      <g transform="translate(428.512419 322.182437)scale(0.1 -0.1)">
       <use xlink:href="#DejaVuSans-50"/>
       <use x="63.623047" xlink:href="#DejaVuSans-53"/>
      </g>
     </g>
    </g>
    <g id="xtick_7">
     <g id="line2d_13">
      <path clip-path="url(#p4ba36520ac)" d="M 501.487837 307.584 
L 501.487837 41.472 
" style="fill:none;stroke:#b0b0b0;stroke-linecap:square;stroke-width:0.8;"/>
     </g>
     <g id="line2d_14">
      <g>
       <use style="stroke:#000000;stroke-width:0.8;" x="501.487837" xlink:href="#m18ba8156c6" y="307.584"/>
      </g>
     </g>
     <g id="text_7">
      <!-- 30 -->
      <defs>
       <path d="M 40.578125 39.3125 
Q 47.65625 37.796875 51.625 33 
Q 55.609375 28.21875 55.609375 21.1875 
Q 55.609375 10.40625 48.1875 4.484375 
Q 40.765625 -1.421875 27.09375 -1.421875 
Q 22.515625 -1.421875 17.65625 -0.515625 
Q 12.796875 0.390625 7.625 2.203125 
L 7.625 11.71875 
Q 11.71875 9.328125 16.59375 8.109375 
Q 21.484375 6.890625 26.8125 6.890625 
Q 36.078125 6.890625 40.9375 10.546875 
Q 45.796875 14.203125 45.796875 21.1875 
Q 45.796875 27.640625 41.28125 31.265625 
Q 36.765625 34.90625 28.71875 34.90625 
L 20.21875 34.90625 
L 20.21875 43.015625 
L 29.109375 43.015625 
Q 36.375 43.015625 40.234375 45.921875 
Q 44.09375 48.828125 44.09375 54.296875 
Q 44.09375 59.90625 40.109375 62.90625 
Q 36.140625 65.921875 28.71875 65.921875 
Q 24.65625 65.921875 20.015625 65.03125 
Q 15.375 64.15625 9.8125 62.3125 
L 9.8125 71.09375 
Q 15.4375 72.65625 20.34375 73.4375 
Q 25.25 74.21875 29.59375 74.21875 
Q 40.828125 74.21875 47.359375 69.109375 
Q 53.90625 64.015625 53.90625 55.328125 
Q 53.90625 49.265625 50.4375 45.09375 
Q 46.96875 40.921875 40.578125 39.3125 
z
" id="DejaVuSans-51"/>
      </defs>
      <g transform="translate(495.125337 322.182437)scale(0.1 -0.1)">
       <use xlink:href="#DejaVuSans-51"/>
       <use x="63.623047" xlink:href="#DejaVuSans-48"/>
      </g>
     </g>
    </g>
    <g id="xtick_8">
     <g id="line2d_15">
      <path clip-path="url(#p4ba36520ac)" d="M 568.100756 307.584 
L 568.100756 41.472 
" style="fill:none;stroke:#b0b0b0;stroke-linecap:square;stroke-width:0.8;"/>
     </g>
     <g id="line2d_16">
      <g>
       <use style="stroke:#000000;stroke-width:0.8;" x="568.100756" xlink:href="#m18ba8156c6" y="307.584"/>
      </g>
     </g>
     <g id="text_8">
      <!-- 35 -->
      <g transform="translate(561.738256 322.182437)scale(0.1 -0.1)">
       <use xlink:href="#DejaVuSans-51"/>
       <use x="63.623047" xlink:href="#DejaVuSans-53"/>
      </g>
     </g>
    </g>
    <g id="xtick_9">
     <g id="line2d_17">
      <path clip-path="url(#p4ba36520ac)" d="M 634.713675 307.584 
L 634.713675 41.472 
" style="fill:none;stroke:#b0b0b0;stroke-linecap:square;stroke-width:0.8;"/>
     </g>
     <g id="line2d_18">
      <g>
       <use style="stroke:#000000;stroke-width:0.8;" x="634.713675" xlink:href="#m18ba8156c6" y="307.584"/>
      </g>
     </g>
     <g id="text_9">
      <!-- 40 -->
      <defs>
       <path d="M 37.796875 64.3125 
L 12.890625 25.390625 
L 37.796875 25.390625 
z
M 35.203125 72.90625 
L 47.609375 72.90625 
L 47.609375 25.390625 
L 58.015625 25.390625 
L 58.015625 17.1875 
L 47.609375 17.1875 
L 47.609375 0 
L 37.796875 0 
L 37.796875 17.1875 
L 4.890625 17.1875 
L 4.890625 26.703125 
z
" id="DejaVuSans-52"/>
      </defs>
      <g transform="translate(628.351175 322.182437)scale(0.1 -0.1)">
       <use xlink:href="#DejaVuSans-52"/>
       <use x="63.623047" xlink:href="#DejaVuSans-48"/>
      </g>
     </g>
    </g>
    <g id="text_10">
     <!-- Number of top frequent sequences (k) -->
     <defs>
      <path d="M 9.8125 72.90625 
L 23.09375 72.90625 
L 55.421875 11.921875 
L 55.421875 72.90625 
L 64.984375 72.90625 
L 64.984375 0 
L 51.703125 0 
L 19.390625 60.984375 
L 19.390625 0 
L 9.8125 0 
z
" id="DejaVuSans-78"/>
      <path d="M 8.5 21.578125 
L 8.5 54.6875 
L 17.484375 54.6875 
L 17.484375 21.921875 
Q 17.484375 14.15625 20.5 10.265625 
Q 23.53125 6.390625 29.59375 6.390625 
Q 36.859375 6.390625 41.078125 11.03125 
Q 45.3125 15.671875 45.3125 23.6875 
L 45.3125 54.6875 
L 54.296875 54.6875 
L 54.296875 0 
L 45.3125 0 
L 45.3125 8.40625 
Q 42.046875 3.421875 37.71875 1 
Q 33.40625 -1.421875 27.6875 -1.421875 
Q 18.265625 -1.421875 13.375 4.4375 
Q 8.5 10.296875 8.5 21.578125 
z
M 31.109375 56 
z
" id="DejaVuSans-117"/>
      <path d="M 52 44.1875 
Q 55.375 50.25 60.0625 53.125 
Q 64.75 56 71.09375 56 
Q 79.640625 56 84.28125 50.015625 
Q 88.921875 44.046875 88.921875 33.015625 
L 88.921875 0 
L 79.890625 0 
L 79.890625 32.71875 
Q 79.890625 40.578125 77.09375 44.375 
Q 74.3125 48.1875 68.609375 48.1875 
Q 61.625 48.1875 57.5625 43.546875 
Q 53.515625 38.921875 53.515625 30.90625 
L 53.515625 0 
L 44.484375 0 
L 44.484375 32.71875 
Q 44.484375 40.625 41.703125 44.40625 
Q 38.921875 48.1875 33.109375 48.1875 
Q 26.21875 48.1875 22.15625 43.53125 
Q 18.109375 38.875 18.109375 30.90625 
L 18.109375 0 
L 9.078125 0 
L 9.078125 54.6875 
L 18.109375 54.6875 
L 18.109375 46.1875 
Q 21.1875 51.21875 25.484375 53.609375 
Q 29.78125 56 35.6875 56 
Q 41.65625 56 45.828125 52.96875 
Q 50 49.953125 52 44.1875 
z
" id="DejaVuSans-109"/>
      <path d="M 48.6875 27.296875 
Q 48.6875 37.203125 44.609375 42.84375 
Q 40.53125 48.484375 33.40625 48.484375 
Q 26.265625 48.484375 22.1875 42.84375 
Q 18.109375 37.203125 18.109375 27.296875 
Q 18.109375 17.390625 22.1875 11.75 
Q 26.265625 6.109375 33.40625 6.109375 
Q 40.53125 6.109375 44.609375 11.75 
Q 48.6875 17.390625 48.6875 27.296875 
z
M 18.109375 46.390625 
Q 20.953125 51.265625 25.265625 53.625 
Q 29.59375 56 35.59375 56 
Q 45.5625 56 51.78125 48.09375 
Q 58.015625 40.1875 58.015625 27.296875 
Q 58.015625 14.40625 51.78125 6.484375 
Q 45.5625 -1.421875 35.59375 -1.421875 
Q 29.59375 -1.421875 25.265625 0.953125 
Q 20.953125 3.328125 18.109375 8.203125 
L 18.109375 0 
L 9.078125 0 
L 9.078125 75.984375 
L 18.109375 75.984375 
z
" id="DejaVuSans-98"/>
      <path d="M 56.203125 29.59375 
L 56.203125 25.203125 
L 14.890625 25.203125 
Q 15.484375 15.921875 20.484375 11.0625 
Q 25.484375 6.203125 34.421875 6.203125 
Q 39.59375 6.203125 44.453125 7.46875 
Q 49.3125 8.734375 54.109375 11.28125 
L 54.109375 2.78125 
Q 49.265625 0.734375 44.1875 -0.34375 
Q 39.109375 -1.421875 33.890625 -1.421875 
Q 20.796875 -1.421875 13.15625 6.1875 
Q 5.515625 13.8125 5.515625 26.8125 
Q 5.515625 40.234375 12.765625 48.109375 
Q 20.015625 56 32.328125 56 
Q 43.359375 56 49.78125 48.890625 
Q 56.203125 41.796875 56.203125 29.59375 
z
M 47.21875 32.234375 
Q 47.125 39.59375 43.09375 43.984375 
Q 39.0625 48.390625 32.421875 48.390625 
Q 24.90625 48.390625 20.390625 44.140625 
Q 15.875 39.890625 15.1875 32.171875 
z
" id="DejaVuSans-101"/>
      <path d="M 41.109375 46.296875 
Q 39.59375 47.171875 37.8125 47.578125 
Q 36.03125 48 33.890625 48 
Q 26.265625 48 22.1875 43.046875 
Q 18.109375 38.09375 18.109375 28.8125 
L 18.109375 0 
L 9.078125 0 
L 9.078125 54.6875 
L 18.109375 54.6875 
L 18.109375 46.1875 
Q 20.953125 51.171875 25.484375 53.578125 
Q 30.03125 56 36.53125 56 
Q 37.453125 56 38.578125 55.875 
Q 39.703125 55.765625 41.0625 55.515625 
z
" id="DejaVuSans-114"/>
      <path id="DejaVuSans-32"/>
      <path d="M 30.609375 48.390625 
Q 23.390625 48.390625 19.1875 42.75 
Q 14.984375 37.109375 14.984375 27.296875 
Q 14.984375 17.484375 19.15625 11.84375 
Q 23.34375 6.203125 30.609375 6.203125 
Q 37.796875 6.203125 41.984375 11.859375 
Q 46.1875 17.53125 46.1875 27.296875 
Q 46.1875 37.015625 41.984375 42.703125 
Q 37.796875 48.390625 30.609375 48.390625 
z
M 30.609375 56 
Q 42.328125 56 49.015625 48.375 
Q 55.71875 40.765625 55.71875 27.296875 
Q 55.71875 13.875 49.015625 6.21875 
Q 42.328125 -1.421875 30.609375 -1.421875 
Q 18.84375 -1.421875 12.171875 6.21875 
Q 5.515625 13.875 5.515625 27.296875 
Q 5.515625 40.765625 12.171875 48.375 
Q 18.84375 56 30.609375 56 
z
" id="DejaVuSans-111"/>
      <path d="M 37.109375 75.984375 
L 37.109375 68.5 
L 28.515625 68.5 
Q 23.6875 68.5 21.796875 66.546875 
Q 19.921875 64.59375 19.921875 59.515625 
L 19.921875 54.6875 
L 34.71875 54.6875 
L 34.71875 47.703125 
L 19.921875 47.703125 
L 19.921875 0 
L 10.890625 0 
L 10.890625 47.703125 
L 2.296875 47.703125 
L 2.296875 54.6875 
L 10.890625 54.6875 
L 10.890625 58.5 
Q 10.890625 67.625 15.140625 71.796875 
Q 19.390625 75.984375 28.609375 75.984375 
z
" id="DejaVuSans-102"/>
      <path d="M 18.3125 70.21875 
L 18.3125 54.6875 
L 36.8125 54.6875 
L 36.8125 47.703125 
L 18.3125 47.703125 
L 18.3125 18.015625 
Q 18.3125 11.328125 20.140625 9.421875 
Q 21.96875 7.515625 27.59375 7.515625 
L 36.8125 7.515625 
L 36.8125 0 
L 27.59375 0 
Q 17.1875 0 13.234375 3.875 
Q 9.28125 7.765625 9.28125 18.015625 
L 9.28125 47.703125 
L 2.6875 47.703125 
L 2.6875 54.6875 
L 9.28125 54.6875 
L 9.28125 70.21875 
z
" id="DejaVuSans-116"/>
      <path d="M 18.109375 8.203125 
L 18.109375 -20.796875 
L 9.078125 -20.796875 
L 9.078125 54.6875 
L 18.109375 54.6875 
L 18.109375 46.390625 
Q 20.953125 51.265625 25.265625 53.625 
Q 29.59375 56 35.59375 56 
Q 45.5625 56 51.78125 48.09375 
Q 58.015625 40.1875 58.015625 27.296875 
Q 58.015625 14.40625 51.78125 6.484375 
Q 45.5625 -1.421875 35.59375 -1.421875 
Q 29.59375 -1.421875 25.265625 0.953125 
Q 20.953125 3.328125 18.109375 8.203125 
z
M 48.6875 27.296875 
Q 48.6875 37.203125 44.609375 42.84375 
Q 40.53125 48.484375 33.40625 48.484375 
Q 26.265625 48.484375 22.1875 42.84375 
Q 18.109375 37.203125 18.109375 27.296875 
Q 18.109375 17.390625 22.1875 11.75 
Q 26.265625 6.109375 33.40625 6.109375 
Q 40.53125 6.109375 44.609375 11.75 
Q 48.6875 17.390625 48.6875 27.296875 
z
" id="DejaVuSans-112"/>
      <path d="M 14.796875 27.296875 
Q 14.796875 17.390625 18.875 11.75 
Q 22.953125 6.109375 30.078125 6.109375 
Q 37.203125 6.109375 41.296875 11.75 
Q 45.40625 17.390625 45.40625 27.296875 
Q 45.40625 37.203125 41.296875 42.84375 
Q 37.203125 48.484375 30.078125 48.484375 
Q 22.953125 48.484375 18.875 42.84375 
Q 14.796875 37.203125 14.796875 27.296875 
z
M 45.40625 8.203125 
Q 42.578125 3.328125 38.25 0.953125 
Q 33.9375 -1.421875 27.875 -1.421875 
Q 17.96875 -1.421875 11.734375 6.484375 
Q 5.515625 14.40625 5.515625 27.296875 
Q 5.515625 40.1875 11.734375 48.09375 
Q 17.96875 56 27.875 56 
Q 33.9375 56 38.25 53.625 
Q 42.578125 51.265625 45.40625 46.390625 
L 45.40625 54.6875 
L 54.390625 54.6875 
L 54.390625 -20.796875 
L 45.40625 -20.796875 
z
" id="DejaVuSans-113"/>
      <path d="M 54.890625 33.015625 
L 54.890625 0 
L 45.90625 0 
L 45.90625 32.71875 
Q 45.90625 40.484375 42.875 44.328125 
Q 39.84375 48.1875 33.796875 48.1875 
Q 26.515625 48.1875 22.3125 43.546875 
Q 18.109375 38.921875 18.109375 30.90625 
L 18.109375 0 
L 9.078125 0 
L 9.078125 54.6875 
L 18.109375 54.6875 
L 18.109375 46.1875 
Q 21.34375 51.125 25.703125 53.5625 
Q 30.078125 56 35.796875 56 
Q 45.21875 56 50.046875 50.171875 
Q 54.890625 44.34375 54.890625 33.015625 
z
" id="DejaVuSans-110"/>
      <path d="M 44.28125 53.078125 
L 44.28125 44.578125 
Q 40.484375 46.53125 36.375 47.5 
Q 32.28125 48.484375 27.875 48.484375 
Q 21.1875 48.484375 17.84375 46.4375 
Q 14.5 44.390625 14.5 40.28125 
Q 14.5 37.15625 16.890625 35.375 
Q 19.28125 33.59375 26.515625 31.984375 
L 29.59375 31.296875 
Q 39.15625 29.25 43.1875 25.515625 
Q 47.21875 21.78125 47.21875 15.09375 
Q 47.21875 7.46875 41.1875 3.015625 
Q 35.15625 -1.421875 24.609375 -1.421875 
Q 20.21875 -1.421875 15.453125 -0.5625 
Q 10.6875 0.296875 5.421875 2 
L 5.421875 11.28125 
Q 10.40625 8.6875 15.234375 7.390625 
Q 20.0625 6.109375 24.8125 6.109375 
Q 31.15625 6.109375 34.5625 8.28125 
Q 37.984375 10.453125 37.984375 14.40625 
Q 37.984375 18.0625 35.515625 20.015625 
Q 33.0625 21.96875 24.703125 23.78125 
L 21.578125 24.515625 
Q 13.234375 26.265625 9.515625 29.90625 
Q 5.8125 33.546875 5.8125 39.890625 
Q 5.8125 47.609375 11.28125 51.796875 
Q 16.75 56 26.8125 56 
Q 31.78125 56 36.171875 55.265625 
Q 40.578125 54.546875 44.28125 53.078125 
z
" id="DejaVuSans-115"/>
      <path d="M 48.78125 52.59375 
L 48.78125 44.1875 
Q 44.96875 46.296875 41.140625 47.34375 
Q 37.3125 48.390625 33.40625 48.390625 
Q 24.65625 48.390625 19.8125 42.84375 
Q 14.984375 37.3125 14.984375 27.296875 
Q 14.984375 17.28125 19.8125 11.734375 
Q 24.65625 6.203125 33.40625 6.203125 
Q 37.3125 6.203125 41.140625 7.25 
Q 44.96875 8.296875 48.78125 10.40625 
L 48.78125 2.09375 
Q 45.015625 0.34375 40.984375 -0.53125 
Q 36.96875 -1.421875 32.421875 -1.421875 
Q 20.0625 -1.421875 12.78125 6.34375 
Q 5.515625 14.109375 5.515625 27.296875 
Q 5.515625 40.671875 12.859375 48.328125 
Q 20.21875 56 33.015625 56 
Q 37.15625 56 41.109375 55.140625 
Q 45.0625 54.296875 48.78125 52.59375 
z
" id="DejaVuSans-99"/>
      <path d="M 31 75.875 
Q 24.46875 64.65625 21.28125 53.65625 
Q 18.109375 42.671875 18.109375 31.390625 
Q 18.109375 20.125 21.3125 9.0625 
Q 24.515625 -2 31 -13.1875 
L 23.1875 -13.1875 
Q 15.875 -1.703125 12.234375 9.375 
Q 8.59375 20.453125 8.59375 31.390625 
Q 8.59375 42.28125 12.203125 53.3125 
Q 15.828125 64.359375 23.1875 75.875 
z
" id="DejaVuSans-40"/>
      <path d="M 9.078125 75.984375 
L 18.109375 75.984375 
L 18.109375 31.109375 
L 44.921875 54.6875 
L 56.390625 54.6875 
L 27.390625 29.109375 
L 57.625 0 
L 45.90625 0 
L 18.109375 26.703125 
L 18.109375 0 
L 9.078125 0 
z
" id="DejaVuSans-107"/>
      <path d="M 8.015625 75.875 
L 15.828125 75.875 
Q 23.140625 64.359375 26.78125 53.3125 
Q 30.421875 42.28125 30.421875 31.390625 
Q 30.421875 20.453125 26.78125 9.375 
Q 23.140625 -1.703125 15.828125 -13.1875 
L 8.015625 -13.1875 
Q 14.5 -2 17.703125 9.0625 
Q 20.90625 20.125 20.90625 31.390625 
Q 20.90625 42.671875 17.703125 53.65625 
Q 14.5 64.65625 8.015625 75.875 
z
" id="DejaVuSans-41"/>
     </defs>
     <g transform="translate(272.392469 335.860562)scale(0.1 -0.1)">
      <use xlink:href="#DejaVuSans-78"/>
      <use x="74.804688" xlink:href="#DejaVuSans-117"/>
      <use x="138.183594" xlink:href="#DejaVuSans-109"/>
      <use x="235.595703" xlink:href="#DejaVuSans-98"/>
      <use x="299.072266" xlink:href="#DejaVuSans-101"/>
      <use x="360.595703" xlink:href="#DejaVuSans-114"/>
      <use x="401.708984" xlink:href="#DejaVuSans-32"/>
      <use x="433.496094" xlink:href="#DejaVuSans-111"/>
      <use x="494.677734" xlink:href="#DejaVuSans-102"/>
      <use x="529.882812" xlink:href="#DejaVuSans-32"/>
      <use x="561.669922" xlink:href="#DejaVuSans-116"/>
      <use x="600.878906" xlink:href="#DejaVuSans-111"/>
      <use x="662.060547" xlink:href="#DejaVuSans-112"/>
      <use x="725.537109" xlink:href="#DejaVuSans-32"/>
      <use x="757.324219" xlink:href="#DejaVuSans-102"/>
      <use x="792.529297" xlink:href="#DejaVuSans-114"/>
      <use x="831.392578" xlink:href="#DejaVuSans-101"/>
      <use x="892.916016" xlink:href="#DejaVuSans-113"/>
      <use x="956.392578" xlink:href="#DejaVuSans-117"/>
      <use x="1019.771484" xlink:href="#DejaVuSans-101"/>
      <use x="1081.294922" xlink:href="#DejaVuSans-110"/>
      <use x="1144.673828" xlink:href="#DejaVuSans-116"/>
      <use x="1183.882812" xlink:href="#DejaVuSans-32"/>
      <use x="1215.669922" xlink:href="#DejaVuSans-115"/>
      <use x="1267.769531" xlink:href="#DejaVuSans-101"/>
      <use x="1329.292969" xlink:href="#DejaVuSans-113"/>
      <use x="1392.769531" xlink:href="#DejaVuSans-117"/>
      <use x="1456.148438" xlink:href="#DejaVuSans-101"/>
      <use x="1517.671875" xlink:href="#DejaVuSans-110"/>
      <use x="1581.050781" xlink:href="#DejaVuSans-99"/>
      <use x="1636.03125" xlink:href="#DejaVuSans-101"/>
      <use x="1697.554688" xlink:href="#DejaVuSans-115"/>
      <use x="1749.654297" xlink:href="#DejaVuSans-32"/>
      <use x="1781.441406" xlink:href="#DejaVuSans-40"/>
      <use x="1820.455078" xlink:href="#DejaVuSans-107"/>
      <use x="1878.365234" xlink:href="#DejaVuSans-41"/>
     </g>
    </g>
   </g>
   <g id="matplotlib.axis_2">
    <g id="ytick_1">
     <g id="line2d_19">
      <path clip-path="url(#p4ba36520ac)" d="M 89.82 307.584 
L 646.704 307.584 
" style="fill:none;stroke:#b0b0b0;stroke-linecap:square;stroke-width:0.8;"/>
     </g>
     <g id="line2d_20">
      <defs>
       <path d="M 0 0 
L -3.5 0 
" id="m3b089fe36f" style="stroke:#000000;stroke-width:0.8;"/>
      </defs>
      <g>
       <use style="stroke:#000000;stroke-width:0.8;" x="89.82" xlink:href="#m3b089fe36f" y="307.584"/>
      </g>
     </g>
     <g id="text_11">
      <!-- 0.0 -->
      <defs>
       <path d="M 10.6875 12.40625 
L 21 12.40625 
L 21 0 
L 10.6875 0 
z
" id="DejaVuSans-46"/>
      </defs>
      <g transform="translate(66.916875 311.383219)scale(0.1 -0.1)">
       <use xlink:href="#DejaVuSans-48"/>
       <use x="63.623047" xlink:href="#DejaVuSans-46"/>
       <use x="95.410156" xlink:href="#DejaVuSans-48"/>
      </g>
     </g>
    </g>
    <g id="ytick_2">
     <g id="line2d_21">
      <path clip-path="url(#p4ba36520ac)" d="M 89.82 259.2 
L 646.704 259.2 
" style="fill:none;stroke:#b0b0b0;stroke-linecap:square;stroke-width:0.8;"/>
     </g>
     <g id="line2d_22">
      <g>
       <use style="stroke:#000000;stroke-width:0.8;" x="89.82" xlink:href="#m3b089fe36f" y="259.2"/>
      </g>
     </g>
     <g id="text_12">
      <!-- 0.2 -->
      <g transform="translate(66.916875 262.999219)scale(0.1 -0.1)">
       <use xlink:href="#DejaVuSans-48"/>
       <use x="63.623047" xlink:href="#DejaVuSans-46"/>
       <use x="95.410156" xlink:href="#DejaVuSans-50"/>
      </g>
     </g>
    </g>
    <g id="ytick_3">
     <g id="line2d_23">
      <path clip-path="url(#p4ba36520ac)" d="M 89.82 210.816 
L 646.704 210.816 
" style="fill:none;stroke:#b0b0b0;stroke-linecap:square;stroke-width:0.8;"/>
     </g>
     <g id="line2d_24">
      <g>
       <use style="stroke:#000000;stroke-width:0.8;" x="89.82" xlink:href="#m3b089fe36f" y="210.816"/>
      </g>
     </g>
     <g id="text_13">
      <!-- 0.4 -->
      <g transform="translate(66.916875 214.615219)scale(0.1 -0.1)">
       <use xlink:href="#DejaVuSans-48"/>
       <use x="63.623047" xlink:href="#DejaVuSans-46"/>
       <use x="95.410156" xlink:href="#DejaVuSans-52"/>
      </g>
     </g>
    </g>
    <g id="ytick_4">
     <g id="line2d_25">
      <path clip-path="url(#p4ba36520ac)" d="M 89.82 162.432 
L 646.704 162.432 
" style="fill:none;stroke:#b0b0b0;stroke-linecap:square;stroke-width:0.8;"/>
     </g>
     <g id="line2d_26">
      <g>
       <use style="stroke:#000000;stroke-width:0.8;" x="89.82" xlink:href="#m3b089fe36f" y="162.432"/>
      </g>
     </g>
     <g id="text_14">
      <!-- 0.6 -->
      <defs>
       <path d="M 33.015625 40.375 
Q 26.375 40.375 22.484375 35.828125 
Q 18.609375 31.296875 18.609375 23.390625 
Q 18.609375 15.53125 22.484375 10.953125 
Q 26.375 6.390625 33.015625 6.390625 
Q 39.65625 6.390625 43.53125 10.953125 
Q 47.40625 15.53125 47.40625 23.390625 
Q 47.40625 31.296875 43.53125 35.828125 
Q 39.65625 40.375 33.015625 40.375 
z
M 52.59375 71.296875 
L 52.59375 62.3125 
Q 48.875 64.0625 45.09375 64.984375 
Q 41.3125 65.921875 37.59375 65.921875 
Q 27.828125 65.921875 22.671875 59.328125 
Q 17.53125 52.734375 16.796875 39.40625 
Q 19.671875 43.65625 24.015625 45.921875 
Q 28.375 48.1875 33.59375 48.1875 
Q 44.578125 48.1875 50.953125 41.515625 
Q 57.328125 34.859375 57.328125 23.390625 
Q 57.328125 12.15625 50.6875 5.359375 
Q 44.046875 -1.421875 33.015625 -1.421875 
Q 20.359375 -1.421875 13.671875 8.265625 
Q 6.984375 17.96875 6.984375 36.375 
Q 6.984375 53.65625 15.1875 63.9375 
Q 23.390625 74.21875 37.203125 74.21875 
Q 40.921875 74.21875 44.703125 73.484375 
Q 48.484375 72.75 52.59375 71.296875 
z
" id="DejaVuSans-54"/>
      </defs>
      <g transform="translate(66.916875 166.231219)scale(0.1 -0.1)">
       <use xlink:href="#DejaVuSans-48"/>
       <use x="63.623047" xlink:href="#DejaVuSans-46"/>
       <use x="95.410156" xlink:href="#DejaVuSans-54"/>
      </g>
     </g>
    </g>
    <g id="ytick_5">
     <g id="line2d_27">
      <path clip-path="url(#p4ba36520ac)" d="M 89.82 114.048 
L 646.704 114.048 
" style="fill:none;stroke:#b0b0b0;stroke-linecap:square;stroke-width:0.8;"/>
     </g>
     <g id="line2d_28">
      <g>
       <use style="stroke:#000000;stroke-width:0.8;" x="89.82" xlink:href="#m3b089fe36f" y="114.048"/>
      </g>
     </g>
     <g id="text_15">
      <!-- 0.8 -->
      <defs>
       <path d="M 31.78125 34.625 
Q 24.75 34.625 20.71875 30.859375 
Q 16.703125 27.09375 16.703125 20.515625 
Q 16.703125 13.921875 20.71875 10.15625 
Q 24.75 6.390625 31.78125 6.390625 
Q 38.8125 6.390625 42.859375 10.171875 
Q 46.921875 13.96875 46.921875 20.515625 
Q 46.921875 27.09375 42.890625 30.859375 
Q 38.875 34.625 31.78125 34.625 
z
M 21.921875 38.8125 
Q 15.578125 40.375 12.03125 44.71875 
Q 8.5 49.078125 8.5 55.328125 
Q 8.5 64.0625 14.71875 69.140625 
Q 20.953125 74.21875 31.78125 74.21875 
Q 42.671875 74.21875 48.875 69.140625 
Q 55.078125 64.0625 55.078125 55.328125 
Q 55.078125 49.078125 51.53125 44.71875 
Q 48 40.375 41.703125 38.8125 
Q 48.828125 37.15625 52.796875 32.3125 
Q 56.78125 27.484375 56.78125 20.515625 
Q 56.78125 9.90625 50.3125 4.234375 
Q 43.84375 -1.421875 31.78125 -1.421875 
Q 19.734375 -1.421875 13.25 4.234375 
Q 6.78125 9.90625 6.78125 20.515625 
Q 6.78125 27.484375 10.78125 32.3125 
Q 14.796875 37.15625 21.921875 38.8125 
z
M 18.3125 54.390625 
Q 18.3125 48.734375 21.84375 45.5625 
Q 25.390625 42.390625 31.78125 42.390625 
Q 38.140625 42.390625 41.71875 45.5625 
Q 45.3125 48.734375 45.3125 54.390625 
Q 45.3125 60.0625 41.71875 63.234375 
Q 38.140625 66.40625 31.78125 66.40625 
Q 25.390625 66.40625 21.84375 63.234375 
Q 18.3125 60.0625 18.3125 54.390625 
z
" id="DejaVuSans-56"/>
      </defs>
      <g transform="translate(66.916875 117.847219)scale(0.1 -0.1)">
       <use xlink:href="#DejaVuSans-48"/>
       <use x="63.623047" xlink:href="#DejaVuSans-46"/>
       <use x="95.410156" xlink:href="#DejaVuSans-56"/>
      </g>
     </g>
    </g>
    <g id="ytick_6">
     <g id="line2d_29">
      <path clip-path="url(#p4ba36520ac)" d="M 89.82 65.664 
L 646.704 65.664 
" style="fill:none;stroke:#b0b0b0;stroke-linecap:square;stroke-width:0.8;"/>
     </g>
     <g id="line2d_30">
      <g>
       <use style="stroke:#000000;stroke-width:0.8;" x="89.82" xlink:href="#m3b089fe36f" y="65.664"/>
      </g>
     </g>
     <g id="text_16">
      <!-- 1.0 -->
      <g transform="translate(66.916875 69.463219)scale(0.1 -0.1)">
       <use xlink:href="#DejaVuSans-49"/>
       <use x="63.623047" xlink:href="#DejaVuSans-46"/>
       <use x="95.410156" xlink:href="#DejaVuSans-48"/>
      </g>
     </g>
    </g>
    <g id="text_17">
     <!-- Accuracy -->
     <defs>
      <path d="M 34.1875 63.1875 
L 20.796875 26.90625 
L 47.609375 26.90625 
z
M 28.609375 72.90625 
L 39.796875 72.90625 
L 67.578125 0 
L 57.328125 0 
L 50.6875 18.703125 
L 17.828125 18.703125 
L 11.1875 0 
L 0.78125 0 
z
" id="DejaVuSans-65"/>
      <path d="M 34.28125 27.484375 
Q 23.390625 27.484375 19.1875 25 
Q 14.984375 22.515625 14.984375 16.5 
Q 14.984375 11.71875 18.140625 8.90625 
Q 21.296875 6.109375 26.703125 6.109375 
Q 34.1875 6.109375 38.703125 11.40625 
Q 43.21875 16.703125 43.21875 25.484375 
L 43.21875 27.484375 
z
M 52.203125 31.203125 
L 52.203125 0 
L 43.21875 0 
L 43.21875 8.296875 
Q 40.140625 3.328125 35.546875 0.953125 
Q 30.953125 -1.421875 24.3125 -1.421875 
Q 15.921875 -1.421875 10.953125 3.296875 
Q 6 8.015625 6 15.921875 
Q 6 25.140625 12.171875 29.828125 
Q 18.359375 34.515625 30.609375 34.515625 
L 43.21875 34.515625 
L 43.21875 35.40625 
Q 43.21875 41.609375 39.140625 45 
Q 35.0625 48.390625 27.6875 48.390625 
Q 23 48.390625 18.546875 47.265625 
Q 14.109375 46.140625 10.015625 43.890625 
L 10.015625 52.203125 
Q 14.9375 54.109375 19.578125 55.046875 
Q 24.21875 56 28.609375 56 
Q 40.484375 56 46.34375 49.84375 
Q 52.203125 43.703125 52.203125 31.203125 
z
" id="DejaVuSans-97"/>
      <path d="M 32.171875 -5.078125 
Q 28.375 -14.84375 24.75 -17.8125 
Q 21.140625 -20.796875 15.09375 -20.796875 
L 7.90625 -20.796875 
L 7.90625 -13.28125 
L 13.1875 -13.28125 
Q 16.890625 -13.28125 18.9375 -11.515625 
Q 21 -9.765625 23.484375 -3.21875 
L 25.09375 0.875 
L 2.984375 54.6875 
L 12.5 54.6875 
L 29.59375 11.921875 
L 46.6875 54.6875 
L 56.203125 54.6875 
z
" id="DejaVuSans-121"/>
     </defs>
     <g transform="translate(60.837187 197.356125)rotate(-90)scale(0.1 -0.1)">
      <use xlink:href="#DejaVuSans-65"/>
      <use x="66.658203" xlink:href="#DejaVuSans-99"/>
      <use x="121.638672" xlink:href="#DejaVuSans-99"/>
      <use x="176.619141" xlink:href="#DejaVuSans-117"/>
      <use x="239.998047" xlink:href="#DejaVuSans-114"/>
      <use x="281.111328" xlink:href="#DejaVuSans-97"/>
      <use x="342.390625" xlink:href="#DejaVuSans-99"/>
      <use x="397.371094" xlink:href="#DejaVuSans-121"/>
     </g>
    </g>
   </g>
   <g id="line2d_31">
    <path clip-path="url(#p4ba36520ac)" d="M 115.132909 186.624 
L 128.455493 194.184 
L 141.778077 186.624 
L 155.10066 186.624 
L 168.423244 186.624 
L 181.745828 186.624 
L 195.068411 186.624 
L 208.390995 186.624 
L 221.713579 186.624 
L 235.036163 186.624 
L 248.358746 186.624 
L 261.68133 186.624 
L 275.003914 186.624 
L 288.326498 186.624 
L 301.649081 186.624 
L 314.971665 186.624 
L 328.294249 186.624 
L 341.616833 186.624 
L 354.939416 186.624 
L 368.262 186.624 
L 381.584584 186.624 
L 394.907167 186.624 
L 408.229751 186.624 
L 421.552335 186.624 
L 434.874919 186.624 
L 448.197502 186.624 
L 461.520086 186.624 
L 474.84267 186.624 
L 488.165254 186.624 
L 501.487837 186.624 
L 514.810421 186.624 
L 528.133005 186.624 
L 541.455589 186.624 
L 554.778172 186.624 
L 568.100756 186.624 
L 581.42334 186.624 
L 594.745923 186.624 
L 608.068507 186.624 
L 621.391091 186.624 
" style="fill:none;stroke:#1f77b4;stroke-linecap:square;stroke-width:1.5;"/>
    <defs>
     <path d="M -4 4 
L 4 4 
L 4 -4 
L -4 -4 
z
" id="m1fd66f261c" style="stroke:#1f77b4;stroke-linejoin:miter;"/>
    </defs>
    <g clip-path="url(#p4ba36520ac)">
     <use style="fill:#1f77b4;stroke:#1f77b4;stroke-linejoin:miter;" x="115.132909" xlink:href="#m1fd66f261c" y="186.624"/>
     <use style="fill:#1f77b4;stroke:#1f77b4;stroke-linejoin:miter;" x="128.455493" xlink:href="#m1fd66f261c" y="194.184"/>
     <use style="fill:#1f77b4;stroke:#1f77b4;stroke-linejoin:miter;" x="141.778077" xlink:href="#m1fd66f261c" y="186.624"/>
     <use style="fill:#1f77b4;stroke:#1f77b4;stroke-linejoin:miter;" x="155.10066" xlink:href="#m1fd66f261c" y="186.624"/>
     <use style="fill:#1f77b4;stroke:#1f77b4;stroke-linejoin:miter;" x="168.423244" xlink:href="#m1fd66f261c" y="186.624"/>
     <use style="fill:#1f77b4;stroke:#1f77b4;stroke-linejoin:miter;" x="181.745828" xlink:href="#m1fd66f261c" y="186.624"/>
     <use style="fill:#1f77b4;stroke:#1f77b4;stroke-linejoin:miter;" x="195.068411" xlink:href="#m1fd66f261c" y="186.624"/>
     <use style="fill:#1f77b4;stroke:#1f77b4;stroke-linejoin:miter;" x="208.390995" xlink:href="#m1fd66f261c" y="186.624"/>
     <use style="fill:#1f77b4;stroke:#1f77b4;stroke-linejoin:miter;" x="221.713579" xlink:href="#m1fd66f261c" y="186.624"/>
     <use style="fill:#1f77b4;stroke:#1f77b4;stroke-linejoin:miter;" x="235.036163" xlink:href="#m1fd66f261c" y="186.624"/>
     <use style="fill:#1f77b4;stroke:#1f77b4;stroke-linejoin:miter;" x="248.358746" xlink:href="#m1fd66f261c" y="186.624"/>
     <use style="fill:#1f77b4;stroke:#1f77b4;stroke-linejoin:miter;" x="261.68133" xlink:href="#m1fd66f261c" y="186.624"/>
     <use style="fill:#1f77b4;stroke:#1f77b4;stroke-linejoin:miter;" x="275.003914" xlink:href="#m1fd66f261c" y="186.624"/>
     <use style="fill:#1f77b4;stroke:#1f77b4;stroke-linejoin:miter;" x="288.326498" xlink:href="#m1fd66f261c" y="186.624"/>
     <use style="fill:#1f77b4;stroke:#1f77b4;stroke-linejoin:miter;" x="301.649081" xlink:href="#m1fd66f261c" y="186.624"/>
     <use style="fill:#1f77b4;stroke:#1f77b4;stroke-linejoin:miter;" x="314.971665" xlink:href="#m1fd66f261c" y="186.624"/>
     <use style="fill:#1f77b4;stroke:#1f77b4;stroke-linejoin:miter;" x="328.294249" xlink:href="#m1fd66f261c" y="186.624"/>
     <use style="fill:#1f77b4;stroke:#1f77b4;stroke-linejoin:miter;" x="341.616833" xlink:href="#m1fd66f261c" y="186.624"/>
     <use style="fill:#1f77b4;stroke:#1f77b4;stroke-linejoin:miter;" x="354.939416" xlink:href="#m1fd66f261c" y="186.624"/>
     <use style="fill:#1f77b4;stroke:#1f77b4;stroke-linejoin:miter;" x="368.262" xlink:href="#m1fd66f261c" y="186.624"/>
     <use style="fill:#1f77b4;stroke:#1f77b4;stroke-linejoin:miter;" x="381.584584" xlink:href="#m1fd66f261c" y="186.624"/>
     <use style="fill:#1f77b4;stroke:#1f77b4;stroke-linejoin:miter;" x="394.907167" xlink:href="#m1fd66f261c" y="186.624"/>
     <use style="fill:#1f77b4;stroke:#1f77b4;stroke-linejoin:miter;" x="408.229751" xlink:href="#m1fd66f261c" y="186.624"/>
     <use style="fill:#1f77b4;stroke:#1f77b4;stroke-linejoin:miter;" x="421.552335" xlink:href="#m1fd66f261c" y="186.624"/>
     <use style="fill:#1f77b4;stroke:#1f77b4;stroke-linejoin:miter;" x="434.874919" xlink:href="#m1fd66f261c" y="186.624"/>
     <use style="fill:#1f77b4;stroke:#1f77b4;stroke-linejoin:miter;" x="448.197502" xlink:href="#m1fd66f261c" y="186.624"/>
     <use style="fill:#1f77b4;stroke:#1f77b4;stroke-linejoin:miter;" x="461.520086" xlink:href="#m1fd66f261c" y="186.624"/>
     <use style="fill:#1f77b4;stroke:#1f77b4;stroke-linejoin:miter;" x="474.84267" xlink:href="#m1fd66f261c" y="186.624"/>
     <use style="fill:#1f77b4;stroke:#1f77b4;stroke-linejoin:miter;" x="488.165254" xlink:href="#m1fd66f261c" y="186.624"/>
     <use style="fill:#1f77b4;stroke:#1f77b4;stroke-linejoin:miter;" x="501.487837" xlink:href="#m1fd66f261c" y="186.624"/>
     <use style="fill:#1f77b4;stroke:#1f77b4;stroke-linejoin:miter;" x="514.810421" xlink:href="#m1fd66f261c" y="186.624"/>
     <use style="fill:#1f77b4;stroke:#1f77b4;stroke-linejoin:miter;" x="528.133005" xlink:href="#m1fd66f261c" y="186.624"/>
     <use style="fill:#1f77b4;stroke:#1f77b4;stroke-linejoin:miter;" x="541.455589" xlink:href="#m1fd66f261c" y="186.624"/>
     <use style="fill:#1f77b4;stroke:#1f77b4;stroke-linejoin:miter;" x="554.778172" xlink:href="#m1fd66f261c" y="186.624"/>
     <use style="fill:#1f77b4;stroke:#1f77b4;stroke-linejoin:miter;" x="568.100756" xlink:href="#m1fd66f261c" y="186.624"/>
     <use style="fill:#1f77b4;stroke:#1f77b4;stroke-linejoin:miter;" x="581.42334" xlink:href="#m1fd66f261c" y="186.624"/>
     <use style="fill:#1f77b4;stroke:#1f77b4;stroke-linejoin:miter;" x="594.745923" xlink:href="#m1fd66f261c" y="186.624"/>
     <use style="fill:#1f77b4;stroke:#1f77b4;stroke-linejoin:miter;" x="608.068507" xlink:href="#m1fd66f261c" y="186.624"/>
     <use style="fill:#1f77b4;stroke:#1f77b4;stroke-linejoin:miter;" x="621.391091" xlink:href="#m1fd66f261c" y="186.624"/>
    </g>
   </g>
   <g id="line2d_32">
    <path clip-path="url(#p4ba36520ac)" d="M 115.132909 111.024 
L 128.455493 118.584 
L 141.778077 126.144 
L 155.10066 148.824 
L 168.423244 171.504 
L 181.745828 156.384 
L 195.068411 163.944 
L 208.390995 141.264 
L 221.713579 141.264 
L 235.036163 133.704 
L 248.358746 133.704 
L 261.68133 133.704 
L 275.003914 133.704 
L 288.326498 133.704 
L 301.649081 133.704 
L 314.971665 133.704 
L 328.294249 133.704 
L 341.616833 133.704 
L 354.939416 133.704 
L 368.262 133.704 
L 381.584584 133.704 
L 394.907167 133.704 
L 408.229751 133.704 
L 421.552335 133.704 
L 434.874919 133.704 
L 448.197502 133.704 
L 461.520086 133.704 
L 474.84267 133.704 
L 488.165254 133.704 
L 501.487837 133.704 
L 514.810421 133.704 
L 528.133005 133.704 
L 541.455589 133.704 
L 554.778172 133.704 
L 568.100756 133.704 
L 581.42334 133.704 
L 594.745923 133.704 
L 608.068507 133.704 
L 621.391091 133.704 
" style="fill:none;stroke:#ff7f0e;stroke-linecap:square;stroke-opacity:0.7;stroke-width:1.5;"/>
    <defs>
     <path d="M 0 -3.5 
L -3.5 3.5 
L 3.5 3.5 
z
" id="m986c3d67d0" style="stroke:#ff7f0e;stroke-linejoin:miter;stroke-opacity:0.7;"/>
    </defs>
    <g clip-path="url(#p4ba36520ac)">
     <use style="fill:#ff7f0e;fill-opacity:0.7;stroke:#ff7f0e;stroke-linejoin:miter;stroke-opacity:0.7;" x="115.132909" xlink:href="#m986c3d67d0" y="111.024"/>
     <use style="fill:#ff7f0e;fill-opacity:0.7;stroke:#ff7f0e;stroke-linejoin:miter;stroke-opacity:0.7;" x="128.455493" xlink:href="#m986c3d67d0" y="118.584"/>
     <use style="fill:#ff7f0e;fill-opacity:0.7;stroke:#ff7f0e;stroke-linejoin:miter;stroke-opacity:0.7;" x="141.778077" xlink:href="#m986c3d67d0" y="126.144"/>
     <use style="fill:#ff7f0e;fill-opacity:0.7;stroke:#ff7f0e;stroke-linejoin:miter;stroke-opacity:0.7;" x="155.10066" xlink:href="#m986c3d67d0" y="148.824"/>
     <use style="fill:#ff7f0e;fill-opacity:0.7;stroke:#ff7f0e;stroke-linejoin:miter;stroke-opacity:0.7;" x="168.423244" xlink:href="#m986c3d67d0" y="171.504"/>
     <use style="fill:#ff7f0e;fill-opacity:0.7;stroke:#ff7f0e;stroke-linejoin:miter;stroke-opacity:0.7;" x="181.745828" xlink:href="#m986c3d67d0" y="156.384"/>
     <use style="fill:#ff7f0e;fill-opacity:0.7;stroke:#ff7f0e;stroke-linejoin:miter;stroke-opacity:0.7;" x="195.068411" xlink:href="#m986c3d67d0" y="163.944"/>
     <use style="fill:#ff7f0e;fill-opacity:0.7;stroke:#ff7f0e;stroke-linejoin:miter;stroke-opacity:0.7;" x="208.390995" xlink:href="#m986c3d67d0" y="141.264"/>
     <use style="fill:#ff7f0e;fill-opacity:0.7;stroke:#ff7f0e;stroke-linejoin:miter;stroke-opacity:0.7;" x="221.713579" xlink:href="#m986c3d67d0" y="141.264"/>
     <use style="fill:#ff7f0e;fill-opacity:0.7;stroke:#ff7f0e;stroke-linejoin:miter;stroke-opacity:0.7;" x="235.036163" xlink:href="#m986c3d67d0" y="133.704"/>
     <use style="fill:#ff7f0e;fill-opacity:0.7;stroke:#ff7f0e;stroke-linejoin:miter;stroke-opacity:0.7;" x="248.358746" xlink:href="#m986c3d67d0" y="133.704"/>
     <use style="fill:#ff7f0e;fill-opacity:0.7;stroke:#ff7f0e;stroke-linejoin:miter;stroke-opacity:0.7;" x="261.68133" xlink:href="#m986c3d67d0" y="133.704"/>
     <use style="fill:#ff7f0e;fill-opacity:0.7;stroke:#ff7f0e;stroke-linejoin:miter;stroke-opacity:0.7;" x="275.003914" xlink:href="#m986c3d67d0" y="133.704"/>
     <use style="fill:#ff7f0e;fill-opacity:0.7;stroke:#ff7f0e;stroke-linejoin:miter;stroke-opacity:0.7;" x="288.326498" xlink:href="#m986c3d67d0" y="133.704"/>
     <use style="fill:#ff7f0e;fill-opacity:0.7;stroke:#ff7f0e;stroke-linejoin:miter;stroke-opacity:0.7;" x="301.649081" xlink:href="#m986c3d67d0" y="133.704"/>
     <use style="fill:#ff7f0e;fill-opacity:0.7;stroke:#ff7f0e;stroke-linejoin:miter;stroke-opacity:0.7;" x="314.971665" xlink:href="#m986c3d67d0" y="133.704"/>
     <use style="fill:#ff7f0e;fill-opacity:0.7;stroke:#ff7f0e;stroke-linejoin:miter;stroke-opacity:0.7;" x="328.294249" xlink:href="#m986c3d67d0" y="133.704"/>
     <use style="fill:#ff7f0e;fill-opacity:0.7;stroke:#ff7f0e;stroke-linejoin:miter;stroke-opacity:0.7;" x="341.616833" xlink:href="#m986c3d67d0" y="133.704"/>
     <use style="fill:#ff7f0e;fill-opacity:0.7;stroke:#ff7f0e;stroke-linejoin:miter;stroke-opacity:0.7;" x="354.939416" xlink:href="#m986c3d67d0" y="133.704"/>
     <use style="fill:#ff7f0e;fill-opacity:0.7;stroke:#ff7f0e;stroke-linejoin:miter;stroke-opacity:0.7;" x="368.262" xlink:href="#m986c3d67d0" y="133.704"/>
     <use style="fill:#ff7f0e;fill-opacity:0.7;stroke:#ff7f0e;stroke-linejoin:miter;stroke-opacity:0.7;" x="381.584584" xlink:href="#m986c3d67d0" y="133.704"/>
     <use style="fill:#ff7f0e;fill-opacity:0.7;stroke:#ff7f0e;stroke-linejoin:miter;stroke-opacity:0.7;" x="394.907167" xlink:href="#m986c3d67d0" y="133.704"/>
     <use style="fill:#ff7f0e;fill-opacity:0.7;stroke:#ff7f0e;stroke-linejoin:miter;stroke-opacity:0.7;" x="408.229751" xlink:href="#m986c3d67d0" y="133.704"/>
     <use style="fill:#ff7f0e;fill-opacity:0.7;stroke:#ff7f0e;stroke-linejoin:miter;stroke-opacity:0.7;" x="421.552335" xlink:href="#m986c3d67d0" y="133.704"/>
     <use style="fill:#ff7f0e;fill-opacity:0.7;stroke:#ff7f0e;stroke-linejoin:miter;stroke-opacity:0.7;" x="434.874919" xlink:href="#m986c3d67d0" y="133.704"/>
     <use style="fill:#ff7f0e;fill-opacity:0.7;stroke:#ff7f0e;stroke-linejoin:miter;stroke-opacity:0.7;" x="448.197502" xlink:href="#m986c3d67d0" y="133.704"/>
     <use style="fill:#ff7f0e;fill-opacity:0.7;stroke:#ff7f0e;stroke-linejoin:miter;stroke-opacity:0.7;" x="461.520086" xlink:href="#m986c3d67d0" y="133.704"/>
     <use style="fill:#ff7f0e;fill-opacity:0.7;stroke:#ff7f0e;stroke-linejoin:miter;stroke-opacity:0.7;" x="474.84267" xlink:href="#m986c3d67d0" y="133.704"/>
     <use style="fill:#ff7f0e;fill-opacity:0.7;stroke:#ff7f0e;stroke-linejoin:miter;stroke-opacity:0.7;" x="488.165254" xlink:href="#m986c3d67d0" y="133.704"/>
     <use style="fill:#ff7f0e;fill-opacity:0.7;stroke:#ff7f0e;stroke-linejoin:miter;stroke-opacity:0.7;" x="501.487837" xlink:href="#m986c3d67d0" y="133.704"/>
     <use style="fill:#ff7f0e;fill-opacity:0.7;stroke:#ff7f0e;stroke-linejoin:miter;stroke-opacity:0.7;" x="514.810421" xlink:href="#m986c3d67d0" y="133.704"/>
     <use style="fill:#ff7f0e;fill-opacity:0.7;stroke:#ff7f0e;stroke-linejoin:miter;stroke-opacity:0.7;" x="528.133005" xlink:href="#m986c3d67d0" y="133.704"/>
     <use style="fill:#ff7f0e;fill-opacity:0.7;stroke:#ff7f0e;stroke-linejoin:miter;stroke-opacity:0.7;" x="541.455589" xlink:href="#m986c3d67d0" y="133.704"/>
     <use style="fill:#ff7f0e;fill-opacity:0.7;stroke:#ff7f0e;stroke-linejoin:miter;stroke-opacity:0.7;" x="554.778172" xlink:href="#m986c3d67d0" y="133.704"/>
     <use style="fill:#ff7f0e;fill-opacity:0.7;stroke:#ff7f0e;stroke-linejoin:miter;stroke-opacity:0.7;" x="568.100756" xlink:href="#m986c3d67d0" y="133.704"/>
     <use style="fill:#ff7f0e;fill-opacity:0.7;stroke:#ff7f0e;stroke-linejoin:miter;stroke-opacity:0.7;" x="581.42334" xlink:href="#m986c3d67d0" y="133.704"/>
     <use style="fill:#ff7f0e;fill-opacity:0.7;stroke:#ff7f0e;stroke-linejoin:miter;stroke-opacity:0.7;" x="594.745923" xlink:href="#m986c3d67d0" y="133.704"/>
     <use style="fill:#ff7f0e;fill-opacity:0.7;stroke:#ff7f0e;stroke-linejoin:miter;stroke-opacity:0.7;" x="608.068507" xlink:href="#m986c3d67d0" y="133.704"/>
     <use style="fill:#ff7f0e;fill-opacity:0.7;stroke:#ff7f0e;stroke-linejoin:miter;stroke-opacity:0.7;" x="621.391091" xlink:href="#m986c3d67d0" y="133.704"/>
    </g>
   </g>
   <g id="line2d_33">
    <path clip-path="url(#p4ba36520ac)" d="M 115.132909 179.064 
L 128.455493 179.064 
L 141.778077 171.504 
L 155.10066 171.504 
L 168.423244 148.824 
L 181.745828 141.264 
L 195.068411 133.704 
L 208.390995 133.704 
L 221.713579 133.704 
L 235.036163 133.704 
L 248.358746 133.704 
L 261.68133 126.144 
L 275.003914 126.144 
L 288.326498 126.144 
L 301.649081 126.144 
L 314.971665 126.144 
L 328.294249 126.144 
L 341.616833 148.824 
L 354.939416 126.144 
L 368.262 126.144 
L 381.584584 133.704 
L 394.907167 141.264 
L 408.229751 126.144 
L 421.552335 133.704 
L 434.874919 118.584 
L 448.197502 118.584 
L 461.520086 133.704 
L 474.84267 126.144 
L 488.165254 133.704 
L 501.487837 126.144 
L 514.810421 126.144 
L 528.133005 126.144 
L 541.455589 126.144 
L 554.778172 133.704 
L 568.100756 133.704 
L 581.42334 126.144 
L 594.745923 118.584 
L 608.068507 141.264 
L 621.391091 141.264 
" style="fill:none;stroke:#2ca02c;stroke-linecap:square;stroke-opacity:0.7;stroke-width:1.5;"/>
    <defs>
     <path d="M 0 3.5 
C 0.928211 3.5 1.81853 3.131218 2.474874 2.474874 
C 3.131218 1.81853 3.5 0.928211 3.5 0 
C 3.5 -0.928211 3.131218 -1.81853 2.474874 -2.474874 
C 1.81853 -3.131218 0.928211 -3.5 0 -3.5 
C -0.928211 -3.5 -1.81853 -3.131218 -2.474874 -2.474874 
C -3.131218 -1.81853 -3.5 -0.928211 -3.5 0 
C -3.5 0.928211 -3.131218 1.81853 -2.474874 2.474874 
C -1.81853 3.131218 -0.928211 3.5 0 3.5 
z
" id="m20565b9892" style="stroke:#2ca02c;stroke-opacity:0.7;"/>
    </defs>
    <g clip-path="url(#p4ba36520ac)">
     <use style="fill:#2ca02c;fill-opacity:0.7;stroke:#2ca02c;stroke-opacity:0.7;" x="115.132909" xlink:href="#m20565b9892" y="179.064"/>
     <use style="fill:#2ca02c;fill-opacity:0.7;stroke:#2ca02c;stroke-opacity:0.7;" x="128.455493" xlink:href="#m20565b9892" y="179.064"/>
     <use style="fill:#2ca02c;fill-opacity:0.7;stroke:#2ca02c;stroke-opacity:0.7;" x="141.778077" xlink:href="#m20565b9892" y="171.504"/>
     <use style="fill:#2ca02c;fill-opacity:0.7;stroke:#2ca02c;stroke-opacity:0.7;" x="155.10066" xlink:href="#m20565b9892" y="171.504"/>
     <use style="fill:#2ca02c;fill-opacity:0.7;stroke:#2ca02c;stroke-opacity:0.7;" x="168.423244" xlink:href="#m20565b9892" y="148.824"/>
     <use style="fill:#2ca02c;fill-opacity:0.7;stroke:#2ca02c;stroke-opacity:0.7;" x="181.745828" xlink:href="#m20565b9892" y="141.264"/>
     <use style="fill:#2ca02c;fill-opacity:0.7;stroke:#2ca02c;stroke-opacity:0.7;" x="195.068411" xlink:href="#m20565b9892" y="133.704"/>
     <use style="fill:#2ca02c;fill-opacity:0.7;stroke:#2ca02c;stroke-opacity:0.7;" x="208.390995" xlink:href="#m20565b9892" y="133.704"/>
     <use style="fill:#2ca02c;fill-opacity:0.7;stroke:#2ca02c;stroke-opacity:0.7;" x="221.713579" xlink:href="#m20565b9892" y="133.704"/>
     <use style="fill:#2ca02c;fill-opacity:0.7;stroke:#2ca02c;stroke-opacity:0.7;" x="235.036163" xlink:href="#m20565b9892" y="133.704"/>
     <use style="fill:#2ca02c;fill-opacity:0.7;stroke:#2ca02c;stroke-opacity:0.7;" x="248.358746" xlink:href="#m20565b9892" y="133.704"/>
     <use style="fill:#2ca02c;fill-opacity:0.7;stroke:#2ca02c;stroke-opacity:0.7;" x="261.68133" xlink:href="#m20565b9892" y="126.144"/>
     <use style="fill:#2ca02c;fill-opacity:0.7;stroke:#2ca02c;stroke-opacity:0.7;" x="275.003914" xlink:href="#m20565b9892" y="126.144"/>
     <use style="fill:#2ca02c;fill-opacity:0.7;stroke:#2ca02c;stroke-opacity:0.7;" x="288.326498" xlink:href="#m20565b9892" y="126.144"/>
     <use style="fill:#2ca02c;fill-opacity:0.7;stroke:#2ca02c;stroke-opacity:0.7;" x="301.649081" xlink:href="#m20565b9892" y="126.144"/>
     <use style="fill:#2ca02c;fill-opacity:0.7;stroke:#2ca02c;stroke-opacity:0.7;" x="314.971665" xlink:href="#m20565b9892" y="126.144"/>
     <use style="fill:#2ca02c;fill-opacity:0.7;stroke:#2ca02c;stroke-opacity:0.7;" x="328.294249" xlink:href="#m20565b9892" y="126.144"/>
     <use style="fill:#2ca02c;fill-opacity:0.7;stroke:#2ca02c;stroke-opacity:0.7;" x="341.616833" xlink:href="#m20565b9892" y="148.824"/>
     <use style="fill:#2ca02c;fill-opacity:0.7;stroke:#2ca02c;stroke-opacity:0.7;" x="354.939416" xlink:href="#m20565b9892" y="126.144"/>
     <use style="fill:#2ca02c;fill-opacity:0.7;stroke:#2ca02c;stroke-opacity:0.7;" x="368.262" xlink:href="#m20565b9892" y="126.144"/>
     <use style="fill:#2ca02c;fill-opacity:0.7;stroke:#2ca02c;stroke-opacity:0.7;" x="381.584584" xlink:href="#m20565b9892" y="133.704"/>
     <use style="fill:#2ca02c;fill-opacity:0.7;stroke:#2ca02c;stroke-opacity:0.7;" x="394.907167" xlink:href="#m20565b9892" y="141.264"/>
     <use style="fill:#2ca02c;fill-opacity:0.7;stroke:#2ca02c;stroke-opacity:0.7;" x="408.229751" xlink:href="#m20565b9892" y="126.144"/>
     <use style="fill:#2ca02c;fill-opacity:0.7;stroke:#2ca02c;stroke-opacity:0.7;" x="421.552335" xlink:href="#m20565b9892" y="133.704"/>
     <use style="fill:#2ca02c;fill-opacity:0.7;stroke:#2ca02c;stroke-opacity:0.7;" x="434.874919" xlink:href="#m20565b9892" y="118.584"/>
     <use style="fill:#2ca02c;fill-opacity:0.7;stroke:#2ca02c;stroke-opacity:0.7;" x="448.197502" xlink:href="#m20565b9892" y="118.584"/>
     <use style="fill:#2ca02c;fill-opacity:0.7;stroke:#2ca02c;stroke-opacity:0.7;" x="461.520086" xlink:href="#m20565b9892" y="133.704"/>
     <use style="fill:#2ca02c;fill-opacity:0.7;stroke:#2ca02c;stroke-opacity:0.7;" x="474.84267" xlink:href="#m20565b9892" y="126.144"/>
     <use style="fill:#2ca02c;fill-opacity:0.7;stroke:#2ca02c;stroke-opacity:0.7;" x="488.165254" xlink:href="#m20565b9892" y="133.704"/>
     <use style="fill:#2ca02c;fill-opacity:0.7;stroke:#2ca02c;stroke-opacity:0.7;" x="501.487837" xlink:href="#m20565b9892" y="126.144"/>
     <use style="fill:#2ca02c;fill-opacity:0.7;stroke:#2ca02c;stroke-opacity:0.7;" x="514.810421" xlink:href="#m20565b9892" y="126.144"/>
     <use style="fill:#2ca02c;fill-opacity:0.7;stroke:#2ca02c;stroke-opacity:0.7;" x="528.133005" xlink:href="#m20565b9892" y="126.144"/>
     <use style="fill:#2ca02c;fill-opacity:0.7;stroke:#2ca02c;stroke-opacity:0.7;" x="541.455589" xlink:href="#m20565b9892" y="126.144"/>
     <use style="fill:#2ca02c;fill-opacity:0.7;stroke:#2ca02c;stroke-opacity:0.7;" x="554.778172" xlink:href="#m20565b9892" y="133.704"/>
     <use style="fill:#2ca02c;fill-opacity:0.7;stroke:#2ca02c;stroke-opacity:0.7;" x="568.100756" xlink:href="#m20565b9892" y="133.704"/>
     <use style="fill:#2ca02c;fill-opacity:0.7;stroke:#2ca02c;stroke-opacity:0.7;" x="581.42334" xlink:href="#m20565b9892" y="126.144"/>
     <use style="fill:#2ca02c;fill-opacity:0.7;stroke:#2ca02c;stroke-opacity:0.7;" x="594.745923" xlink:href="#m20565b9892" y="118.584"/>
     <use style="fill:#2ca02c;fill-opacity:0.7;stroke:#2ca02c;stroke-opacity:0.7;" x="608.068507" xlink:href="#m20565b9892" y="141.264"/>
     <use style="fill:#2ca02c;fill-opacity:0.7;stroke:#2ca02c;stroke-opacity:0.7;" x="621.391091" xlink:href="#m20565b9892" y="141.264"/>
    </g>
   </g>
   <g id="line2d_34">
    <path clip-path="url(#p4ba36520ac)" d="M 115.132909 179.064 
L 128.455493 186.624 
L 141.778077 179.064 
L 155.10066 171.504 
L 168.423244 171.504 
L 181.745828 163.944 
L 195.068411 156.384 
L 208.390995 141.264 
L 221.713579 141.264 
L 235.036163 141.264 
L 248.358746 141.264 
L 261.68133 141.264 
L 275.003914 156.384 
L 288.326498 156.384 
L 301.649081 163.944 
L 314.971665 163.944 
L 328.294249 163.944 
L 341.616833 171.504 
L 354.939416 171.504 
L 368.262 179.064 
L 381.584584 179.064 
L 394.907167 171.504 
L 408.229751 171.504 
L 421.552335 171.504 
L 434.874919 163.944 
L 448.197502 163.944 
L 461.520086 163.944 
L 474.84267 156.384 
L 488.165254 156.384 
L 501.487837 163.944 
L 514.810421 163.944 
L 528.133005 163.944 
L 541.455589 163.944 
L 554.778172 163.944 
L 568.100756 163.944 
L 581.42334 171.504 
L 594.745923 171.504 
L 608.068507 171.504 
L 621.391091 171.504 
" style="fill:none;stroke:#d62728;stroke-linecap:square;stroke-opacity:0.7;stroke-width:1.5;"/>
    <defs>
     <path d="M 0 3.5 
C 0.928211 3.5 1.81853 3.131218 2.474874 2.474874 
C 3.131218 1.81853 3.5 0.928211 3.5 0 
C 3.5 -0.928211 3.131218 -1.81853 2.474874 -2.474874 
C 1.81853 -3.131218 0.928211 -3.5 0 -3.5 
C -0.928211 -3.5 -1.81853 -3.131218 -2.474874 -2.474874 
C -3.131218 -1.81853 -3.5 -0.928211 -3.5 0 
C -3.5 0.928211 -3.131218 1.81853 -2.474874 2.474874 
C -1.81853 3.131218 -0.928211 3.5 0 3.5 
z
" id="m7a38b89f7e" style="stroke:#d62728;stroke-opacity:0.7;"/>
    </defs>
    <g clip-path="url(#p4ba36520ac)">
     <use style="fill:#d62728;fill-opacity:0.7;stroke:#d62728;stroke-opacity:0.7;" x="115.132909" xlink:href="#m7a38b89f7e" y="179.064"/>
     <use style="fill:#d62728;fill-opacity:0.7;stroke:#d62728;stroke-opacity:0.7;" x="128.455493" xlink:href="#m7a38b89f7e" y="186.624"/>
     <use style="fill:#d62728;fill-opacity:0.7;stroke:#d62728;stroke-opacity:0.7;" x="141.778077" xlink:href="#m7a38b89f7e" y="179.064"/>
     <use style="fill:#d62728;fill-opacity:0.7;stroke:#d62728;stroke-opacity:0.7;" x="155.10066" xlink:href="#m7a38b89f7e" y="171.504"/>
     <use style="fill:#d62728;fill-opacity:0.7;stroke:#d62728;stroke-opacity:0.7;" x="168.423244" xlink:href="#m7a38b89f7e" y="171.504"/>
     <use style="fill:#d62728;fill-opacity:0.7;stroke:#d62728;stroke-opacity:0.7;" x="181.745828" xlink:href="#m7a38b89f7e" y="163.944"/>
     <use style="fill:#d62728;fill-opacity:0.7;stroke:#d62728;stroke-opacity:0.7;" x="195.068411" xlink:href="#m7a38b89f7e" y="156.384"/>
     <use style="fill:#d62728;fill-opacity:0.7;stroke:#d62728;stroke-opacity:0.7;" x="208.390995" xlink:href="#m7a38b89f7e" y="141.264"/>
     <use style="fill:#d62728;fill-opacity:0.7;stroke:#d62728;stroke-opacity:0.7;" x="221.713579" xlink:href="#m7a38b89f7e" y="141.264"/>
     <use style="fill:#d62728;fill-opacity:0.7;stroke:#d62728;stroke-opacity:0.7;" x="235.036163" xlink:href="#m7a38b89f7e" y="141.264"/>
     <use style="fill:#d62728;fill-opacity:0.7;stroke:#d62728;stroke-opacity:0.7;" x="248.358746" xlink:href="#m7a38b89f7e" y="141.264"/>
     <use style="fill:#d62728;fill-opacity:0.7;stroke:#d62728;stroke-opacity:0.7;" x="261.68133" xlink:href="#m7a38b89f7e" y="141.264"/>
     <use style="fill:#d62728;fill-opacity:0.7;stroke:#d62728;stroke-opacity:0.7;" x="275.003914" xlink:href="#m7a38b89f7e" y="156.384"/>
     <use style="fill:#d62728;fill-opacity:0.7;stroke:#d62728;stroke-opacity:0.7;" x="288.326498" xlink:href="#m7a38b89f7e" y="156.384"/>
     <use style="fill:#d62728;fill-opacity:0.7;stroke:#d62728;stroke-opacity:0.7;" x="301.649081" xlink:href="#m7a38b89f7e" y="163.944"/>
     <use style="fill:#d62728;fill-opacity:0.7;stroke:#d62728;stroke-opacity:0.7;" x="314.971665" xlink:href="#m7a38b89f7e" y="163.944"/>
     <use style="fill:#d62728;fill-opacity:0.7;stroke:#d62728;stroke-opacity:0.7;" x="328.294249" xlink:href="#m7a38b89f7e" y="163.944"/>
     <use style="fill:#d62728;fill-opacity:0.7;stroke:#d62728;stroke-opacity:0.7;" x="341.616833" xlink:href="#m7a38b89f7e" y="171.504"/>
     <use style="fill:#d62728;fill-opacity:0.7;stroke:#d62728;stroke-opacity:0.7;" x="354.939416" xlink:href="#m7a38b89f7e" y="171.504"/>
     <use style="fill:#d62728;fill-opacity:0.7;stroke:#d62728;stroke-opacity:0.7;" x="368.262" xlink:href="#m7a38b89f7e" y="179.064"/>
     <use style="fill:#d62728;fill-opacity:0.7;stroke:#d62728;stroke-opacity:0.7;" x="381.584584" xlink:href="#m7a38b89f7e" y="179.064"/>
     <use style="fill:#d62728;fill-opacity:0.7;stroke:#d62728;stroke-opacity:0.7;" x="394.907167" xlink:href="#m7a38b89f7e" y="171.504"/>
     <use style="fill:#d62728;fill-opacity:0.7;stroke:#d62728;stroke-opacity:0.7;" x="408.229751" xlink:href="#m7a38b89f7e" y="171.504"/>
     <use style="fill:#d62728;fill-opacity:0.7;stroke:#d62728;stroke-opacity:0.7;" x="421.552335" xlink:href="#m7a38b89f7e" y="171.504"/>
     <use style="fill:#d62728;fill-opacity:0.7;stroke:#d62728;stroke-opacity:0.7;" x="434.874919" xlink:href="#m7a38b89f7e" y="163.944"/>
     <use style="fill:#d62728;fill-opacity:0.7;stroke:#d62728;stroke-opacity:0.7;" x="448.197502" xlink:href="#m7a38b89f7e" y="163.944"/>
     <use style="fill:#d62728;fill-opacity:0.7;stroke:#d62728;stroke-opacity:0.7;" x="461.520086" xlink:href="#m7a38b89f7e" y="163.944"/>
     <use style="fill:#d62728;fill-opacity:0.7;stroke:#d62728;stroke-opacity:0.7;" x="474.84267" xlink:href="#m7a38b89f7e" y="156.384"/>
     <use style="fill:#d62728;fill-opacity:0.7;stroke:#d62728;stroke-opacity:0.7;" x="488.165254" xlink:href="#m7a38b89f7e" y="156.384"/>
     <use style="fill:#d62728;fill-opacity:0.7;stroke:#d62728;stroke-opacity:0.7;" x="501.487837" xlink:href="#m7a38b89f7e" y="163.944"/>
     <use style="fill:#d62728;fill-opacity:0.7;stroke:#d62728;stroke-opacity:0.7;" x="514.810421" xlink:href="#m7a38b89f7e" y="163.944"/>
     <use style="fill:#d62728;fill-opacity:0.7;stroke:#d62728;stroke-opacity:0.7;" x="528.133005" xlink:href="#m7a38b89f7e" y="163.944"/>
     <use style="fill:#d62728;fill-opacity:0.7;stroke:#d62728;stroke-opacity:0.7;" x="541.455589" xlink:href="#m7a38b89f7e" y="163.944"/>
     <use style="fill:#d62728;fill-opacity:0.7;stroke:#d62728;stroke-opacity:0.7;" x="554.778172" xlink:href="#m7a38b89f7e" y="163.944"/>
     <use style="fill:#d62728;fill-opacity:0.7;stroke:#d62728;stroke-opacity:0.7;" x="568.100756" xlink:href="#m7a38b89f7e" y="163.944"/>
     <use style="fill:#d62728;fill-opacity:0.7;stroke:#d62728;stroke-opacity:0.7;" x="581.42334" xlink:href="#m7a38b89f7e" y="171.504"/>
     <use style="fill:#d62728;fill-opacity:0.7;stroke:#d62728;stroke-opacity:0.7;" x="594.745923" xlink:href="#m7a38b89f7e" y="171.504"/>
     <use style="fill:#d62728;fill-opacity:0.7;stroke:#d62728;stroke-opacity:0.7;" x="608.068507" xlink:href="#m7a38b89f7e" y="171.504"/>
     <use style="fill:#d62728;fill-opacity:0.7;stroke:#d62728;stroke-opacity:0.7;" x="621.391091" xlink:href="#m7a38b89f7e" y="171.504"/>
    </g>
   </g>
   <g id="patch_3">
    <path d="M 89.82 307.584 
L 89.82 41.472 
" style="fill:none;stroke:#000000;stroke-linecap:square;stroke-linejoin:miter;stroke-width:0.8;"/>
   </g>
   <g id="patch_4">
    <path d="M 646.704 307.584 
L 646.704 41.472 
" style="fill:none;stroke:#000000;stroke-linecap:square;stroke-linejoin:miter;stroke-width:0.8;"/>
   </g>
   <g id="patch_5">
    <path d="M 89.82 307.584 
L 646.704 307.584 
" style="fill:none;stroke:#000000;stroke-linecap:square;stroke-linejoin:miter;stroke-width:0.8;"/>
   </g>
   <g id="patch_6">
    <path d="M 89.82 41.472 
L 646.704 41.472 
" style="fill:none;stroke:#000000;stroke-linecap:square;stroke-linejoin:miter;stroke-width:0.8;"/>
   </g>
   <g id="text_18">
    <!-- Accuracy with the evolution of k for the small dataset -->
    <defs>
     <path d="M 4.203125 54.6875 
L 13.1875 54.6875 
L 24.421875 12.015625 
L 35.59375 54.6875 
L 46.1875 54.6875 
L 57.421875 12.015625 
L 68.609375 54.6875 
L 77.59375 54.6875 
L 63.28125 0 
L 52.6875 0 
L 40.921875 44.828125 
L 29.109375 0 
L 18.5 0 
z
" id="DejaVuSans-119"/>
     <path d="M 9.421875 54.6875 
L 18.40625 54.6875 
L 18.40625 0 
L 9.421875 0 
z
M 9.421875 75.984375 
L 18.40625 75.984375 
L 18.40625 64.59375 
L 9.421875 64.59375 
z
" id="DejaVuSans-105"/>
     <path d="M 54.890625 33.015625 
L 54.890625 0 
L 45.90625 0 
L 45.90625 32.71875 
Q 45.90625 40.484375 42.875 44.328125 
Q 39.84375 48.1875 33.796875 48.1875 
Q 26.515625 48.1875 22.3125 43.546875 
Q 18.109375 38.921875 18.109375 30.90625 
L 18.109375 0 
L 9.078125 0 
L 9.078125 75.984375 
L 18.109375 75.984375 
L 18.109375 46.1875 
Q 21.34375 51.125 25.703125 53.5625 
Q 30.078125 56 35.796875 56 
Q 45.21875 56 50.046875 50.171875 
Q 54.890625 44.34375 54.890625 33.015625 
z
" id="DejaVuSans-104"/>
     <path d="M 2.984375 54.6875 
L 12.5 54.6875 
L 29.59375 8.796875 
L 46.6875 54.6875 
L 56.203125 54.6875 
L 35.6875 0 
L 23.484375 0 
z
" id="DejaVuSans-118"/>
     <path d="M 9.421875 75.984375 
L 18.40625 75.984375 
L 18.40625 0 
L 9.421875 0 
z
" id="DejaVuSans-108"/>
     <path d="M 45.40625 46.390625 
L 45.40625 75.984375 
L 54.390625 75.984375 
L 54.390625 0 
L 45.40625 0 
L 45.40625 8.203125 
Q 42.578125 3.328125 38.25 0.953125 
Q 33.9375 -1.421875 27.875 -1.421875 
Q 17.96875 -1.421875 11.734375 6.484375 
Q 5.515625 14.40625 5.515625 27.296875 
Q 5.515625 40.1875 11.734375 48.09375 
Q 17.96875 56 27.875 56 
Q 33.9375 56 38.25 53.625 
Q 42.578125 51.265625 45.40625 46.390625 
z
M 14.796875 27.296875 
Q 14.796875 17.390625 18.875 11.75 
Q 22.953125 6.109375 30.078125 6.109375 
Q 37.203125 6.109375 41.296875 11.75 
Q 45.40625 17.390625 45.40625 27.296875 
Q 45.40625 37.203125 41.296875 42.84375 
Q 37.203125 48.484375 30.078125 48.484375 
Q 22.953125 48.484375 18.875 42.84375 
Q 14.796875 37.203125 14.796875 27.296875 
z
" id="DejaVuSans-100"/>
    </defs>
    <g transform="translate(207.235125 35.472)scale(0.12 -0.12)">
     <use xlink:href="#DejaVuSans-65"/>
     <use x="66.658203" xlink:href="#DejaVuSans-99"/>
     <use x="121.638672" xlink:href="#DejaVuSans-99"/>
     <use x="176.619141" xlink:href="#DejaVuSans-117"/>
     <use x="239.998047" xlink:href="#DejaVuSans-114"/>
     <use x="281.111328" xlink:href="#DejaVuSans-97"/>
     <use x="342.390625" xlink:href="#DejaVuSans-99"/>
     <use x="397.371094" xlink:href="#DejaVuSans-121"/>
     <use x="456.550781" xlink:href="#DejaVuSans-32"/>
     <use x="488.337891" xlink:href="#DejaVuSans-119"/>
     <use x="570.125" xlink:href="#DejaVuSans-105"/>
     <use x="597.908203" xlink:href="#DejaVuSans-116"/>
     <use x="637.117188" xlink:href="#DejaVuSans-104"/>
     <use x="700.496094" xlink:href="#DejaVuSans-32"/>
     <use x="732.283203" xlink:href="#DejaVuSans-116"/>
     <use x="771.492188" xlink:href="#DejaVuSans-104"/>
     <use x="834.871094" xlink:href="#DejaVuSans-101"/>
     <use x="896.394531" xlink:href="#DejaVuSans-32"/>
     <use x="928.181641" xlink:href="#DejaVuSans-101"/>
     <use x="989.705078" xlink:href="#DejaVuSans-118"/>
     <use x="1048.884766" xlink:href="#DejaVuSans-111"/>
     <use x="1110.066406" xlink:href="#DejaVuSans-108"/>
     <use x="1137.849609" xlink:href="#DejaVuSans-117"/>
     <use x="1201.228516" xlink:href="#DejaVuSans-116"/>
     <use x="1240.4375" xlink:href="#DejaVuSans-105"/>
     <use x="1268.220703" xlink:href="#DejaVuSans-111"/>
     <use x="1329.402344" xlink:href="#DejaVuSans-110"/>
     <use x="1392.78125" xlink:href="#DejaVuSans-32"/>
     <use x="1424.568359" xlink:href="#DejaVuSans-111"/>
     <use x="1485.75" xlink:href="#DejaVuSans-102"/>
     <use x="1520.955078" xlink:href="#DejaVuSans-32"/>
     <use x="1552.742188" xlink:href="#DejaVuSans-107"/>
     <use x="1610.652344" xlink:href="#DejaVuSans-32"/>
     <use x="1642.439453" xlink:href="#DejaVuSans-102"/>
     <use x="1677.644531" xlink:href="#DejaVuSans-111"/>
     <use x="1738.826172" xlink:href="#DejaVuSans-114"/>
     <use x="1779.939453" xlink:href="#DejaVuSans-32"/>
     <use x="1811.726562" xlink:href="#DejaVuSans-116"/>
     <use x="1850.935547" xlink:href="#DejaVuSans-104"/>
     <use x="1914.314453" xlink:href="#DejaVuSans-101"/>
     <use x="1975.837891" xlink:href="#DejaVuSans-32"/>
     <use x="2007.625" xlink:href="#DejaVuSans-115"/>
     <use x="2059.724609" xlink:href="#DejaVuSans-109"/>
     <use x="2157.136719" xlink:href="#DejaVuSans-97"/>
     <use x="2218.416016" xlink:href="#DejaVuSans-108"/>
     <use x="2246.199219" xlink:href="#DejaVuSans-108"/>
     <use x="2273.982422" xlink:href="#DejaVuSans-32"/>
     <use x="2305.769531" xlink:href="#DejaVuSans-100"/>
     <use x="2369.246094" xlink:href="#DejaVuSans-97"/>
     <use x="2430.525391" xlink:href="#DejaVuSans-116"/>
     <use x="2469.734375" xlink:href="#DejaVuSans-97"/>
     <use x="2531.013672" xlink:href="#DejaVuSans-115"/>
     <use x="2583.113281" xlink:href="#DejaVuSans-101"/>
     <use x="2644.636719" xlink:href="#DejaVuSans-116"/>
    </g>
   </g>
   <g id="legend_1">
    <g id="patch_7">
     <path d="M 531.863375 108.1845 
L 639.704 108.1845 
Q 641.704 108.1845 641.704 106.1845 
L 641.704 48.472 
Q 641.704 46.472 639.704 46.472 
L 531.863375 46.472 
Q 529.863375 46.472 529.863375 48.472 
L 529.863375 106.1845 
Q 529.863375 108.1845 531.863375 108.1845 
z
" style="fill:#ffffff;opacity:0.8;stroke:#cccccc;stroke-linejoin:miter;"/>
    </g>
    <g id="line2d_35">
     <path d="M 533.863375 54.570438 
L 553.863375 54.570438 
" style="fill:none;stroke:#1f77b4;stroke-linecap:square;stroke-width:1.5;"/>
    </g>
    <g id="line2d_36">
     <g>
      <use style="fill:#1f77b4;stroke:#1f77b4;stroke-linejoin:miter;" x="543.863375" xlink:href="#m1fd66f261c" y="54.570438"/>
     </g>
    </g>
    <g id="text_19">
     <!-- Decision tree -->
     <defs>
      <path d="M 19.671875 64.796875 
L 19.671875 8.109375 
L 31.59375 8.109375 
Q 46.6875 8.109375 53.6875 14.9375 
Q 60.6875 21.78125 60.6875 36.53125 
Q 60.6875 51.171875 53.6875 57.984375 
Q 46.6875 64.796875 31.59375 64.796875 
z
M 9.8125 72.90625 
L 30.078125 72.90625 
Q 51.265625 72.90625 61.171875 64.09375 
Q 71.09375 55.28125 71.09375 36.53125 
Q 71.09375 17.671875 61.125 8.828125 
Q 51.171875 0 30.078125 0 
L 9.8125 0 
z
" id="DejaVuSans-68"/>
     </defs>
     <g transform="translate(561.863375 58.070438)scale(0.1 -0.1)">
      <use xlink:href="#DejaVuSans-68"/>
      <use x="77.001953" xlink:href="#DejaVuSans-101"/>
      <use x="138.525391" xlink:href="#DejaVuSans-99"/>
      <use x="193.505859" xlink:href="#DejaVuSans-105"/>
      <use x="221.289062" xlink:href="#DejaVuSans-115"/>
      <use x="273.388672" xlink:href="#DejaVuSans-105"/>
      <use x="301.171875" xlink:href="#DejaVuSans-111"/>
      <use x="362.353516" xlink:href="#DejaVuSans-110"/>
      <use x="425.732422" xlink:href="#DejaVuSans-32"/>
      <use x="457.519531" xlink:href="#DejaVuSans-116"/>
      <use x="496.728516" xlink:href="#DejaVuSans-114"/>
      <use x="535.591797" xlink:href="#DejaVuSans-101"/>
      <use x="597.115234" xlink:href="#DejaVuSans-101"/>
     </g>
    </g>
    <g id="line2d_37">
     <path d="M 533.863375 69.248563 
L 553.863375 69.248563 
" style="fill:none;stroke:#ff7f0e;stroke-linecap:square;stroke-opacity:0.7;stroke-width:1.5;"/>
    </g>
    <g id="line2d_38">
     <g>
      <use style="fill:#ff7f0e;fill-opacity:0.7;stroke:#ff7f0e;stroke-linejoin:miter;stroke-opacity:0.7;" x="543.863375" xlink:href="#m986c3d67d0" y="69.248563"/>
     </g>
    </g>
    <g id="text_20">
     <!-- Sequential rule -->
     <defs>
      <path d="M 53.515625 70.515625 
L 53.515625 60.890625 
Q 47.90625 63.578125 42.921875 64.890625 
Q 37.9375 66.21875 33.296875 66.21875 
Q 25.25 66.21875 20.875 63.09375 
Q 16.5 59.96875 16.5 54.203125 
Q 16.5 49.359375 19.40625 46.890625 
Q 22.3125 44.4375 30.421875 42.921875 
L 36.375 41.703125 
Q 47.40625 39.59375 52.65625 34.296875 
Q 57.90625 29 57.90625 20.125 
Q 57.90625 9.515625 50.796875 4.046875 
Q 43.703125 -1.421875 29.984375 -1.421875 
Q 24.8125 -1.421875 18.96875 -0.25 
Q 13.140625 0.921875 6.890625 3.21875 
L 6.890625 13.375 
Q 12.890625 10.015625 18.65625 8.296875 
Q 24.421875 6.59375 29.984375 6.59375 
Q 38.421875 6.59375 43.015625 9.90625 
Q 47.609375 13.234375 47.609375 19.390625 
Q 47.609375 24.75 44.3125 27.78125 
Q 41.015625 30.8125 33.5 32.328125 
L 27.484375 33.5 
Q 16.453125 35.6875 11.515625 40.375 
Q 6.59375 45.0625 6.59375 53.421875 
Q 6.59375 63.09375 13.40625 68.65625 
Q 20.21875 74.21875 32.171875 74.21875 
Q 37.3125 74.21875 42.625 73.28125 
Q 47.953125 72.359375 53.515625 70.515625 
z
" id="DejaVuSans-83"/>
     </defs>
     <g transform="translate(561.863375 72.748563)scale(0.1 -0.1)">
      <use xlink:href="#DejaVuSans-83"/>
      <use x="63.476562" xlink:href="#DejaVuSans-101"/>
      <use x="125" xlink:href="#DejaVuSans-113"/>
      <use x="188.476562" xlink:href="#DejaVuSans-117"/>
      <use x="251.855469" xlink:href="#DejaVuSans-101"/>
      <use x="313.378906" xlink:href="#DejaVuSans-110"/>
      <use x="376.757812" xlink:href="#DejaVuSans-116"/>
      <use x="415.966797" xlink:href="#DejaVuSans-105"/>
      <use x="443.75" xlink:href="#DejaVuSans-97"/>
      <use x="505.029297" xlink:href="#DejaVuSans-108"/>
      <use x="532.8125" xlink:href="#DejaVuSans-32"/>
      <use x="564.599609" xlink:href="#DejaVuSans-114"/>
      <use x="605.712891" xlink:href="#DejaVuSans-117"/>
      <use x="669.091797" xlink:href="#DejaVuSans-108"/>
      <use x="696.875" xlink:href="#DejaVuSans-101"/>
     </g>
    </g>
    <g id="line2d_39">
     <path d="M 533.863375 83.926688 
L 553.863375 83.926688 
" style="fill:none;stroke:#2ca02c;stroke-linecap:square;stroke-opacity:0.7;stroke-width:1.5;"/>
    </g>
    <g id="line2d_40">
     <g>
      <use style="fill:#2ca02c;fill-opacity:0.7;stroke:#2ca02c;stroke-opacity:0.7;" x="543.863375" xlink:href="#m20565b9892" y="83.926688"/>
     </g>
    </g>
    <g id="text_21">
     <!-- Random forest -->
     <defs>
      <path d="M 44.390625 34.1875 
Q 47.5625 33.109375 50.5625 29.59375 
Q 53.5625 26.078125 56.59375 19.921875 
L 66.609375 0 
L 56 0 
L 46.6875 18.703125 
Q 43.0625 26.03125 39.671875 28.421875 
Q 36.28125 30.8125 30.421875 30.8125 
L 19.671875 30.8125 
L 19.671875 0 
L 9.8125 0 
L 9.8125 72.90625 
L 32.078125 72.90625 
Q 44.578125 72.90625 50.734375 67.671875 
Q 56.890625 62.453125 56.890625 51.90625 
Q 56.890625 45.015625 53.6875 40.46875 
Q 50.484375 35.9375 44.390625 34.1875 
z
M 19.671875 64.796875 
L 19.671875 38.921875 
L 32.078125 38.921875 
Q 39.203125 38.921875 42.84375 42.21875 
Q 46.484375 45.515625 46.484375 51.90625 
Q 46.484375 58.296875 42.84375 61.546875 
Q 39.203125 64.796875 32.078125 64.796875 
z
" id="DejaVuSans-82"/>
     </defs>
     <g transform="translate(561.863375 87.426688)scale(0.1 -0.1)">
      <use xlink:href="#DejaVuSans-82"/>
      <use x="67.232422" xlink:href="#DejaVuSans-97"/>
      <use x="128.511719" xlink:href="#DejaVuSans-110"/>
      <use x="191.890625" xlink:href="#DejaVuSans-100"/>
      <use x="255.367188" xlink:href="#DejaVuSans-111"/>
      <use x="316.548828" xlink:href="#DejaVuSans-109"/>
      <use x="413.960938" xlink:href="#DejaVuSans-32"/>
      <use x="445.748047" xlink:href="#DejaVuSans-102"/>
      <use x="480.953125" xlink:href="#DejaVuSans-111"/>
      <use x="542.134766" xlink:href="#DejaVuSans-114"/>
      <use x="580.998047" xlink:href="#DejaVuSans-101"/>
      <use x="642.521484" xlink:href="#DejaVuSans-115"/>
      <use x="694.621094" xlink:href="#DejaVuSans-116"/>
     </g>
    </g>
    <g id="line2d_41">
     <path d="M 533.863375 98.604813 
L 553.863375 98.604813 
" style="fill:none;stroke:#d62728;stroke-linecap:square;stroke-opacity:0.7;stroke-width:1.5;"/>
    </g>
    <g id="line2d_42">
     <g>
      <use style="fill:#d62728;fill-opacity:0.7;stroke:#d62728;stroke-opacity:0.7;" x="543.863375" xlink:href="#m7a38b89f7e" y="98.604813"/>
     </g>
    </g>
    <g id="text_22">
     <!-- SVC -->
     <defs>
      <path d="M 28.609375 0 
L 0.78125 72.90625 
L 11.078125 72.90625 
L 34.1875 11.53125 
L 57.328125 72.90625 
L 67.578125 72.90625 
L 39.796875 0 
z
" id="DejaVuSans-86"/>
      <path d="M 64.40625 67.28125 
L 64.40625 56.890625 
Q 59.421875 61.53125 53.78125 63.8125 
Q 48.140625 66.109375 41.796875 66.109375 
Q 29.296875 66.109375 22.65625 58.46875 
Q 16.015625 50.828125 16.015625 36.375 
Q 16.015625 21.96875 22.65625 14.328125 
Q 29.296875 6.6875 41.796875 6.6875 
Q 48.140625 6.6875 53.78125 8.984375 
Q 59.421875 11.28125 64.40625 15.921875 
L 64.40625 5.609375 
Q 59.234375 2.09375 53.4375 0.328125 
Q 47.65625 -1.421875 41.21875 -1.421875 
Q 24.65625 -1.421875 15.125 8.703125 
Q 5.609375 18.84375 5.609375 36.375 
Q 5.609375 53.953125 15.125 64.078125 
Q 24.65625 74.21875 41.21875 74.21875 
Q 47.75 74.21875 53.53125 72.484375 
Q 59.328125 70.75 64.40625 67.28125 
z
" id="DejaVuSans-67"/>
     </defs>
     <g transform="translate(561.863375 102.104813)scale(0.1 -0.1)">
      <use xlink:href="#DejaVuSans-83"/>
      <use x="63.476562" xlink:href="#DejaVuSans-86"/>
      <use x="131.884766" xlink:href="#DejaVuSans-67"/>
     </g>
    </g>
   </g>
  </g>
 </g>
 <defs>
  <clipPath id="p4ba36520ac">
   <rect height="266.112" width="556.884" x="89.82" y="41.472"/>
  </clipPath>
 </defs>
</svg>
